<svg xmlns="http://www.w3.org/2000/svg" xmlns:xlink="http://www.w3.org/1999/xlink" version="1.1" width="735" height="217" viewBox="0 0 735 217" xml:space="preserve">
<desc>Created with Fabric.js 3.5.0</desc>
<defs>
</defs>
<rect x="0" y="0" width="100%" height="100%" fill="#eff6ff"/>
<g transform="matrix(0.3512 0 0 0.3512 347.2347 -19.6434)" id="992029">
<rect style="stroke: none; stroke-width: 1; stroke-dasharray: none; stroke-linecap: butt; stroke-dashoffset: 0; stroke-linejoin: miter; stroke-miterlimit: 4; is-custom-font: none; font-file-url: none; fill: rgb(255,255,255); fill-rule: nonzero; opacity: 1;" x="-50" y="-50" rx="0" ry="0" width="100" height="100"/>
</g>
<g transform="matrix(0.9659 0 0 0.9659 576.636 161.2421)" id="472024">
<rect style="stroke: none; stroke-width: 1; stroke-dasharray: none; stroke-linecap: butt; stroke-dashoffset: 0; stroke-linejoin: miter; stroke-miterlimit: 4; is-custom-font: none; font-file-url: none; fill: rgb(230,230,230); fill-rule: nonzero; opacity: 1;" x="-1.9642" y="-1.1785" rx="0.48819" ry="0.48819" width="3.9284" height="2.357"/>
</g>
<g transform="matrix(0.9659 0 0 0.9659 584.2247 161.2421)" id="865733">
<rect style="stroke: none; stroke-width: 1; stroke-dasharray: none; stroke-linecap: butt; stroke-dashoffset: 0; stroke-linejoin: miter; stroke-miterlimit: 4; is-custom-font: none; font-file-url: none; fill: rgb(230,230,230); fill-rule: nonzero; opacity: 1;" x="-1.9642" y="-1.1785" rx="0.48819" ry="0.48819" width="3.9284" height="2.357"/>
</g>
<g transform="matrix(0.9659 0 0 0.9659 576.5463 165.0364)" id="635419">
<rect style="stroke: none; stroke-width: 1; stroke-dasharray: none; stroke-linecap: butt; stroke-dashoffset: 0; stroke-linejoin: miter; stroke-miterlimit: 4; is-custom-font: none; font-file-url: none; fill: rgb(230,230,230); fill-rule: nonzero; opacity: 1;" x="-1.9642" y="-1.1785" rx="0.48819" ry="0.48819" width="3.9284" height="2.357"/>
</g>
<g transform="matrix(0.9659 0 0 0.9659 584.135 165.0364)" id="95374">
<rect style="stroke: none; stroke-width: 1; stroke-dasharray: none; stroke-linecap: butt; stroke-dashoffset: 0; stroke-linejoin: miter; stroke-miterlimit: 4; is-custom-font: none; font-file-url: none; fill: rgb(230,230,230); fill-rule: nonzero; opacity: 1;" x="-1.9642" y="-1.1785" rx="0.48819" ry="0.48819" width="3.9284" height="2.357"/>
</g>
<g transform="matrix(0.9659 0 0 0.9659 546.0853 149.5503)" id="181615">
<polygon style="stroke: none; stroke-width: 1; stroke-dasharray: none; stroke-linecap: butt; stroke-dashoffset: 0; stroke-linejoin: miter; stroke-miterlimit: 4; is-custom-font: none; font-file-url: none; fill: rgb(63,61,86); fill-rule: nonzero; opacity: 1;" points="-24.6045,22.3635 -25.2525,20.4705 24.6055,-22.3635 25.2525,-20.4715 -24.6045,22.3635 "/>
</g>
<g transform="matrix(0.9659 0 0 0.9659 448.0476 112.7133)" id="454516">
<polygon style="stroke: none; stroke-width: 1; stroke-dasharray: none; stroke-linecap: butt; stroke-dashoffset: 0; stroke-linejoin: miter; stroke-miterlimit: 4; is-custom-font: none; font-file-url: none; fill: rgb(63,61,86); fill-rule: nonzero; opacity: 1;" points="23.5205,40.5145 -25.0545,-39.2315 -23.5195,-40.5145 25.0545,39.2315 23.5205,40.5145 "/>
</g>
<g transform="matrix(0.9659 0 0 0.9659 484.534 50.4078)" id="535167">
<polygon style="stroke: none; stroke-width: 1; stroke-dasharray: none; stroke-linecap: butt; stroke-dashoffset: 0; stroke-linejoin: miter; stroke-miterlimit: 4; is-custom-font: none; font-file-url: none; fill: rgb(63,61,86); fill-rule: nonzero; opacity: 1;" points="23.6535,1.109 -23.6535,0.891 -23.6535,-1.109 23.6535,-0.891 23.6535,1.109 "/>
</g>
<g transform="matrix(0.9659 0 0 0.9659 564.5586 50.9047)" id="109217">
<path style="stroke: none; stroke-width: 1; stroke-dasharray: none; stroke-linecap: butt; stroke-dashoffset: 0; stroke-linejoin: miter; stroke-miterlimit: 4; is-custom-font: none; font-file-url: none; fill: rgb(44,163,74); fill-rule: nonzero; opacity: 1;" transform=" translate(-697.1113, -13.9595)" d="M 723.61127 26.95947 h -53 c -7.17969 0 -13 -5.8203 -13 -13 s 5.82031 -13 13 -13 h 53 c 7.17969 0 13 5.8203 13 13 s -5.82031 13 -13 13 h 0 Z" stroke-linecap="round"/>
</g>
<g transform="matrix(0.9659 0 0 0.9659 628.3074 124.3124)" id="824501">
<path style="stroke: none; stroke-width: 1; stroke-dasharray: none; stroke-linecap: butt; stroke-dashoffset: 0; stroke-linejoin: miter; stroke-miterlimit: 4; is-custom-font: none; font-file-url: none; fill: rgb(108,99,255); fill-rule: nonzero; opacity: 1;" transform=" translate(-763.1113, -89.9595)" d="M 789.61127 102.95949 h -53 c -7.17969 0 -13 -5.82031 -13 -13 s 5.82031 -13 13 -13 h 53 c 7.17969 0 13 5.82031 13 13 s -5.82031 13 -13 13 Z" stroke-linecap="round"/>
</g>
<g transform="matrix(0.9659 0 0 0.9659 548.2828 187.5636)" id="947092">
<polygon style="stroke: none; stroke-width: 1; stroke-dasharray: none; stroke-linecap: butt; stroke-dashoffset: 0; stroke-linejoin: miter; stroke-miterlimit: 4; is-custom-font: none; font-file-url: none; fill: rgb(63,61,86); fill-rule: nonzero; opacity: 1;" points="23.6535,1.1085 -23.6535,0.8915 -23.6535,-1.1085 23.6535,-0.8915 23.6535,1.1085 "/>
</g>
<g transform="matrix(0.9659 0 0 0.9659 628.3074 188.061)" id="517070">
<path style="stroke: none; stroke-width: 1; stroke-dasharray: none; stroke-linecap: butt; stroke-dashoffset: 0; stroke-linejoin: miter; stroke-miterlimit: 4; is-custom-font: none; font-file-url: none; fill: rgb(240,89,65); fill-rule: nonzero; opacity: 1;" transform=" translate(-763.1113, -155.9595)" d="M 789.61127 168.95949 h -53 c -7.17969 0 -13 -5.82031 -13 -13 s 5.82031 -13 13 -13 h 53 c 7.17969 0 13 5.82031 13 13 s -5.82031 13 -13 13 Z" stroke-linecap="round"/>
</g>
<g transform="matrix(0.9659 0 0 0.9659 478.5944 179.4073)" id="666701">
<path style="stroke: none; stroke-width: 1; stroke-dasharray: none; stroke-linecap: butt; stroke-dashoffset: 0; stroke-linejoin: miter; stroke-miterlimit: 4; is-custom-font: none; font-file-url: none; fill: rgb(22,72,99); fill-rule: nonzero; opacity: 1;" transform=" translate(-608.1113, -147)" d="M 634.61127 159.99998 h -53 c -7.17969 0 -13 -5.82031 -13 -13 s 5.82031 -13 13 -13 h 53 c 7.17969 0 13 5.82031 13 13 s -5.82031 13 -13 13 Z" stroke-linecap="round"/>
</g>
<g transform="matrix(0.9659 0 0 0.9659 409.0505 49.9781)" id="984219">
<path style="stroke: none; stroke-width: 1; stroke-dasharray: none; stroke-linecap: butt; stroke-dashoffset: 0; stroke-linejoin: miter; stroke-miterlimit: 4; is-custom-font: none; font-file-url: none; fill: rgb(244,206,20); fill-rule: nonzero; opacity: 1;" transform=" translate(-536.1113, -13)" d="M 562.61127 26 h -53 c -7.17969 0 -13 -5.8203 -13 -13 s 5.82031 -13 13 -13 h 53 c 7.17969 0 13 5.8203 13 13 s -5.82031 13 -13 13 Z" stroke-linecap="round"/>
</g>
<g transform="matrix(-0.3229 0 0 0.3229 304.9033 -46.9151)" id="992029">
<rect style="stroke: none; stroke-width: 1; stroke-dasharray: none; stroke-linecap: butt; stroke-dashoffset: 0; stroke-linejoin: miter; stroke-miterlimit: 4; is-custom-font: none; font-file-url: none; fill: rgb(255,255,255); fill-rule: nonzero; opacity: 1;" x="-50" y="-50" rx="0" ry="0" width="100" height="100"/>
</g>
<g transform="matrix(-0.888 0 0 0.888 94.0009 119.3853)" id="472024">
<rect style="stroke: none; stroke-width: 1; stroke-dasharray: none; stroke-linecap: butt; stroke-dashoffset: 0; stroke-linejoin: miter; stroke-miterlimit: 4; is-custom-font: none; font-file-url: none; fill: rgb(230,230,230); fill-rule: nonzero; opacity: 1;" x="-1.9642" y="-1.1785" rx="0.48819" ry="0.48819" width="3.9284" height="2.357"/>
</g>
<g transform="matrix(-0.888 0 0 0.888 87.0241 119.3853)" id="865733">
<rect style="stroke: none; stroke-width: 1; stroke-dasharray: none; stroke-linecap: butt; stroke-dashoffset: 0; stroke-linejoin: miter; stroke-miterlimit: 4; is-custom-font: none; font-file-url: none; fill: rgb(230,230,230); fill-rule: nonzero; opacity: 1;" x="-1.9642" y="-1.1785" rx="0.48819" ry="0.48819" width="3.9284" height="2.357"/>
</g>
<g transform="matrix(-0.888 0 0 0.888 94.0834 122.8737)" id="635419">
<rect style="stroke: none; stroke-width: 1; stroke-dasharray: none; stroke-linecap: butt; stroke-dashoffset: 0; stroke-linejoin: miter; stroke-miterlimit: 4; is-custom-font: none; font-file-url: none; fill: rgb(230,230,230); fill-rule: nonzero; opacity: 1;" x="-1.9642" y="-1.1785" rx="0.48819" ry="0.48819" width="3.9284" height="2.357"/>
</g>
<g transform="matrix(-0.888 0 0 0.888 87.1065 122.8737)" id="95374">
<rect style="stroke: none; stroke-width: 1; stroke-dasharray: none; stroke-linecap: butt; stroke-dashoffset: 0; stroke-linejoin: miter; stroke-miterlimit: 4; is-custom-font: none; font-file-url: none; fill: rgb(230,230,230); fill-rule: nonzero; opacity: 1;" x="-1.9642" y="-1.1785" rx="0.48819" ry="0.48819" width="3.9284" height="2.357"/>
</g>
<g transform="matrix(-0.888 0 0 0.888 122.0884 108.6373)" id="181615">
<polygon style="stroke: none; stroke-width: 1; stroke-dasharray: none; stroke-linecap: butt; stroke-dashoffset: 0; stroke-linejoin: miter; stroke-miterlimit: 4; is-custom-font: none; font-file-url: none; fill: rgb(63,61,86); fill-rule: nonzero; opacity: 1;" points="-24.6045,22.3635 -25.2525,20.4705 24.6055,-22.3635 25.2525,-20.4715 -24.6045,22.3635 "/>
</g>
<g transform="matrix(-0.888 0 0 0.888 212.2208 74.7715)" id="454516">
<polygon style="stroke: none; stroke-width: 1; stroke-dasharray: none; stroke-linecap: butt; stroke-dashoffset: 0; stroke-linejoin: miter; stroke-miterlimit: 4; is-custom-font: none; font-file-url: none; fill: rgb(63,61,86); fill-rule: nonzero; opacity: 1;" points="23.5205,40.5145 -25.0545,-39.2315 -23.5195,-40.5145 25.0545,39.2315 23.5205,40.5145 "/>
</g>
<g transform="matrix(-0.888 0 0 0.888 178.6765 17.4882)" id="535167">
<polygon style="stroke: none; stroke-width: 1; stroke-dasharray: none; stroke-linecap: butt; stroke-dashoffset: 0; stroke-linejoin: miter; stroke-miterlimit: 4; is-custom-font: none; font-file-url: none; fill: rgb(63,61,86); fill-rule: nonzero; opacity: 1;" points="23.6535,1.109 -23.6535,0.891 -23.6535,-1.109 23.6535,-0.891 23.6535,1.109 "/>
</g>
<g transform="matrix(-0.888 0 0 0.888 105.1049 17.9456)" id="109217">
<path style="stroke: none; stroke-width: 1; stroke-dasharray: none; stroke-linecap: butt; stroke-dashoffset: 0; stroke-linejoin: miter; stroke-miterlimit: 4; is-custom-font: none; font-file-url: none; fill: rgb(44,163,74); fill-rule: nonzero; opacity: 1;" transform=" translate(-697.1113, -13.9595)" d="M 723.61127 26.95947 h -53 c -7.17969 0 -13 -5.8203 -13 -13 s 5.82031 -13 13 -13 h 53 c 7.17969 0 13 5.8203 13 13 s -5.82031 13 -13 13 h 0 Z" stroke-linecap="round"/>
</g>
<g transform="matrix(-0.888 0 0 0.888 46.4966 85.434)" id="824501">
<path style="stroke: none; stroke-width: 1; stroke-dasharray: none; stroke-linecap: butt; stroke-dashoffset: 0; stroke-linejoin: miter; stroke-miterlimit: 4; is-custom-font: none; font-file-url: none; fill: rgb(108,99,255); fill-rule: nonzero; opacity: 1;" transform=" translate(-763.1113, -89.9595)" d="M 789.61127 102.95949 h -53 c -7.17969 0 -13 -5.82031 -13 -13 s 5.82031 -13 13 -13 h 53 c 7.17969 0 13 5.82031 13 13 s -5.82031 13 -13 13 Z" stroke-linecap="round"/>
</g>
<g transform="matrix(-0.888 0 0 0.888 120.0682 143.5843)" id="947092">
<polygon style="stroke: none; stroke-width: 1; stroke-dasharray: none; stroke-linecap: butt; stroke-dashoffset: 0; stroke-linejoin: miter; stroke-miterlimit: 4; is-custom-font: none; font-file-url: none; fill: rgb(63,61,86); fill-rule: nonzero; opacity: 1;" points="23.6535,1.1085 -23.6535,0.8915 -23.6535,-1.1085 23.6535,-0.8915 23.6535,1.1085 "/>
</g>
<g transform="matrix(-0.888 0 0 0.888 46.4966 144.0423)" id="517070">
<path style="stroke: none; stroke-width: 1; stroke-dasharray: none; stroke-linecap: butt; stroke-dashoffset: 0; stroke-linejoin: miter; stroke-miterlimit: 4; is-custom-font: none; font-file-url: none; fill: rgb(240,89,65); fill-rule: nonzero; opacity: 1;" transform=" translate(-763.1113, -155.9595)" d="M 789.61127 168.95949 h -53 c -7.17969 0 -13 -5.82031 -13 -13 s 5.82031 -13 13 -13 h 53 c 7.17969 0 13 5.82031 13 13 s -5.82031 13 -13 13 Z" stroke-linecap="round"/>
</g>
<g transform="matrix(-0.888 0 0 0.888 184.1373 136.0862)" id="666701">
<path style="stroke: none; stroke-width: 1; stroke-dasharray: none; stroke-linecap: butt; stroke-dashoffset: 0; stroke-linejoin: miter; stroke-miterlimit: 4; is-custom-font: none; font-file-url: none; fill: rgb(22,72,99); fill-rule: nonzero; opacity: 1;" transform=" translate(-608.1113, -147)" d="M 634.61127 159.99998 h -53 c -7.17969 0 -13 -5.82031 -13 -13 s 5.82031 -13 13 -13 h 53 c 7.17969 0 13 5.82031 13 13 s -5.82031 13 -13 13 Z" stroke-linecap="round"/>
</g>
<g transform="matrix(-0.888 0 0 0.888 248.0736 17.0937)" id="984219">
<path style="stroke: none; stroke-width: 1; stroke-dasharray: none; stroke-linecap: butt; stroke-dashoffset: 0; stroke-linejoin: miter; stroke-miterlimit: 4; is-custom-font: none; font-file-url: none; fill: rgb(244,206,20); fill-rule: nonzero; opacity: 1;" transform=" translate(-536.1113, -13)" d="M 562.61127 26 h -53 c -7.17969 0 -13 -5.8203 -13 -13 s 5.82031 -13 13 -13 h 53 c 7.17969 0 13 5.8203 13 13 s -5.82031 13 -13 13 Z" stroke-linecap="round"/>
</g>
</svg>