<svg width="960" height="960" viewBox="0 0 960 960" fill="none" xmlns="http://www.w3.org/2000/svg">
<path d="M873.551 354.187L857.86 366.25L858.03 386.671L842.711 374.716L824.539 381.585L830.756 362.141L819.345 345.985L838.509 345.907L849.626 329.053L855.255 348.45L873.551 354.187Z" fill="url(#paint0_linear_36_2956)"/>
<path d="M716.807 123.932C717.222 127.162 716.842 130.444 715.699 133.494C714.557 136.543 712.686 139.267 710.251 141.429C707.815 143.59 704.889 145.125 701.725 145.897C698.562 146.67 695.258 146.659 692.1 145.863C688.942 145.068 686.026 143.514 683.606 141.335C681.186 139.156 679.335 136.419 678.214 133.361C677.093 130.304 676.736 127.019 677.174 123.792C677.611 120.565 678.831 117.494 680.726 114.846C689.126 103.109 706.682 104.613 714.171 116.459C715.574 118.733 716.473 121.281 716.807 123.932V123.932Z" fill="#171717"/>
<path d="M688.758 309.608L687.936 309.562C688.494 300.569 688.572 290.01 685.736 278.272L685.922 278.226C694.95 278.205 703.969 277.656 712.932 276.582C711.35 280.892 710.823 285.498 710.311 290.056C709.428 297.747 708.555 305.443 707.691 313.143C702.078 310.523 695.349 312.074 689.472 310.197C689.329 310.17 689.192 310.114 689.072 310.031C688.951 309.948 688.849 309.841 688.772 309.717C688.76 309.682 688.755 309.645 688.758 309.608Z" fill="url(#paint1_linear_36_2956)"/>
<path d="M689.472 310.201C695.349 312.078 702.078 310.527 707.691 313.147C708.557 305.441 709.431 297.745 710.311 290.06C710.823 285.501 711.35 280.896 712.932 276.586C703.968 277.66 694.949 278.209 685.922 278.229L685.736 278.276C684.41 272.771 682.556 267.407 680.2 262.259L680.138 261.716C692.511 253.173 704.807 236.737 714.855 218.953C720.417 209.104 725.302 198.888 729.476 188.376C729.91 187.291 730.329 186.206 730.732 185.136L731.724 185.492C752.346 224.392 760.936 277.253 732.872 314.667C724.266 327.056 710.203 343.367 694.341 340.204C693.193 339.988 692.067 339.671 690.976 339.258C684.728 334.436 686.992 324.017 687.937 309.566L688.759 309.612C688.756 309.649 688.762 309.686 688.775 309.721C688.851 309.845 688.953 309.951 689.073 310.034C689.193 310.117 689.329 310.173 689.472 310.201V310.201Z" fill="url(#paint2_linear_36_2956)"/>
<path d="M664.988 182.869C692.65 159.569 693.007 197.025 686.541 232.269L685.921 232.16C681.056 230.616 676.5 228.228 672.462 225.105C667.764 237.199 662.518 249.065 656.724 260.705C663.644 263.007 670.286 266.076 676.524 269.853L676.648 269.899C674.848 274.675 673.129 278.241 671.656 280.055C664.585 292.211 659.034 308.555 645.684 314.818C630.133 317.19 623.791 298.305 624.117 285.373C624.391 272.517 626.458 259.762 630.257 247.478C630.319 247.278 630.396 247.06 630.457 246.843C637.637 223.524 650.243 201.522 664.988 182.869Z" fill="url(#paint3_linear_36_2956)"/>
<path d="M656.725 260.705C662.509 249.091 667.755 237.225 672.463 225.105C676.5 228.229 681.056 230.617 685.922 232.16L686.542 232.269C684.743 242.142 682.387 251.905 679.487 261.512C678.541 264.582 677.58 267.404 676.649 269.9L676.525 269.854C670.286 266.077 663.645 263.008 656.725 260.705V260.705Z" fill="url(#paint4_linear_36_2956)"/>
<path d="M669.113 78.6103C685.424 51.4763 705.07 32.4513 726.013 43.0413C748.232 54.2833 752.264 79.5873 749.705 106.117L749.628 106.101C745.519 100.845 739.674 97.2323 733.75 94.1623C713.802 83.8729 691.662 78.5586 669.217 78.6723L669.113 78.6103Z" fill="url(#paint5_linear_36_2956)"/>
<path d="M626.459 197.148C625.823 213.63 627.544 230.485 629.405 246.517L630.459 246.843C630.397 247.06 630.32 247.277 630.259 247.478L628.972 247.078C601.155 243 587.542 268.925 585.743 292.878C584.549 294.278 582.301 293.343 580.859 292.242C579.022 290.791 577.324 289.172 575.788 287.405C562.454 272.023 564.066 248.205 569.416 229.368C570.155 225.303 571.207 221.301 572.563 217.398C578.905 222.174 585.402 226.733 592.054 231.074C597.745 222.712 602.968 214.041 607.7 205.1L590.4 189.563L589.671 188.928C601.271 176.136 616.571 166.414 633.225 159.654L633.365 159.7C633.086 160.475 632.822 161.22 632.574 161.948C630.278 168.65 628.652 175.563 627.721 182.586C627.057 187.416 626.636 192.276 626.459 197.148V197.148Z" fill="url(#paint6_linear_36_2956)"/>
<path d="M577.881 658.587C600.224 663.533 617.981 646.741 617.187 625.312H617.218C623.001 638.12 622.257 653.377 616.618 666.246C610.979 679.115 600.756 689.659 588.832 697.117C585.895 699.014 582.773 700.61 579.514 701.878C577.823 702.508 576.086 703.009 574.32 703.378L573.932 703.362C574.332 688.399 575.203 673.452 576.211 658.474L577.881 658.587Z" fill="url(#paint7_linear_36_2956)"/>
<path d="M602.565 918.284C579.331 914.046 556.656 907.174 534.978 897.8L534.202 897.444C534.995 896.634 535.697 895.74 536.295 894.777C537.57 892.617 538.378 890.214 538.668 887.722L539.009 887.769C541.226 888.249 543.409 888.792 545.599 889.397C552.064 891.164 558.437 893.397 564.81 895.568C568.95 896.994 573.11 898.39 577.31 899.63C582.285 901.138 587.357 902.307 592.49 903.13C594.872 903.514 597.274 903.757 599.684 903.859C604.101 904.097 608.523 903.535 612.74 902.2C619.205 900.045 625.051 895.176 627.04 888.648C628.451 884.043 627.878 879.048 626.916 874.321C626.234 871.003 625.316 867.577 623.102 864.987C622.105 863.86 620.932 862.902 619.629 862.15C617.962 861.189 616.22 860.364 614.419 859.684C607.352 856.818 600.173 854.218 592.882 851.884C591.363 851.384 589.843 850.907 588.308 850.442L588.215 849.884C602.138 847.547 615.829 843.998 629.134 839.278C636.142 845.263 643.228 851.372 648.469 858.955C653.802 866.661 657.136 876.212 655.555 885.455C654.562 891.239 651.74 896.526 648.825 901.612C646.546 905.596 644.125 909.597 640.731 912.682C635.785 917.163 629.102 919.365 622.451 919.908C615.8 920.451 609.124 919.462 602.565 918.284Z" fill="url(#paint8_linear_36_2956)"/>
<path d="M590.393 189.567L607.699 205.101C602.968 214.04 597.746 222.71 592.055 231.072C585.403 226.746 578.906 222.187 572.564 217.396C576.276 206.846 582.094 197.16 589.664 188.929L590.393 189.567Z" fill="url(#paint9_linear_36_2956)"/>
<path d="M509.346 194.281L518.541 212.5L499.516 208.577L486.259 222.78L483.22 202.592L465.823 193.164L482.987 184.606L485.484 164.557L499.128 179.458L518.06 176.512L509.346 194.281Z" fill="url(#paint10_linear_36_2956)"/>
<path d="M462.099 417.635C453.478 414.766 445.322 410.208 436.345 408.642C407.319 403.23 393.038 426.767 397.612 453.126C398.326 458.476 395.891 462.6 392.387 466.414C391.487 467.407 390.526 468.368 389.519 469.329C373.019 481.377 374.742 455.266 380.649 444.366C381.437 443.461 382.123 442.473 382.696 441.42C381.883 442.304 381.195 443.295 380.649 444.366C376.199 449.545 368.307 452.866 363.268 447.002C359.624 434.97 377.316 415.045 384.014 410.921C355.438 410.053 374.835 377.693 393.938 388.392C381.238 362.544 408.683 348.574 417.847 377.445C410.931 348.217 441.973 343.612 438.98 374.685C444.097 339.085 475.123 348.853 457.835 382.298C482.364 347.954 506.32 381.011 469.092 397.571C496.892 388.376 503.839 423.139 471.526 419.852C468.317 419.435 465.158 418.692 462.099 417.635V417.635Z" fill="#171717"/>
<path d="M460.381 536.559C458.83 542.73 452.473 541.459 436.766 541.118C419.214 540.342 400.966 544.095 383.8 539.924C382.904 539.185 382.246 538.198 381.908 537.086C380.466 532.698 382.901 526.264 382.684 521.829C382.777 518.837 384.668 516.387 387.784 517.084C389.846 517.333 391.893 517.534 393.955 517.674C407.414 518.774 420.764 518.34 434.255 518.402C435.294 518.402 436.333 518.402 437.372 518.418C446.411 518.511 459.172 516.402 460.118 524.124C460.846 530.016 461.047 533.954 460.381 536.559Z" fill="url(#paint11_linear_36_2956)"/>
<path d="M359.644 847.534C363.83 844.572 368.011 841.611 372.188 838.65C373.568 837.673 374.948 836.696 376.312 835.735C377.565 838.768 379.705 841.351 382.452 843.146L382.08 843.72C368.607 855.675 353.324 865.42 336.8 872.591C331.978 874.684 326.815 876.576 321.605 875.925C318.549 875.457 315.63 874.335 313.046 872.637C305.635 867.97 300.565 860.437 296.223 852.837C294.176 849.237 292.207 845.519 291.417 841.456C290.238 835.378 291.817 829.021 294.688 823.548C297.557 818.059 301.65 813.33 305.805 808.756C316.019 797.516 326.87 786.872 338.305 776.877C343.221 772.566 348.492 768.256 354.865 766.829C360.23 765.62 365.827 766.597 371.239 767.605C374.045 770.023 376.81 772.489 379.534 775.005C379.751 774.974 379.968 774.958 380.185 774.927C386.279 774.183 392.419 773.594 398.559 773.113L398.606 773.625C389.206 778.152 383.147 786.897 379.317 796.805L379.117 796.728C376.02 797.198 372.955 797.855 369.938 798.697C365.418 799.946 360.985 801.489 356.666 803.317C353.224 804.744 349.828 806.31 346.479 807.969C346.293 808.062 346.091 808.155 345.905 808.248C341.076 810.541 336.468 813.271 332.136 816.404C330.626 817.54 329.187 818.767 327.826 820.079C322.632 825.118 318.726 831.816 318.352 839.042C317.978 846.268 321.686 853.896 328.245 856.935C330.237 857.823 332.377 858.332 334.555 858.435C337.776 858.544 340.987 858.012 344 856.869C346.328 855.99 348.566 854.889 350.683 853.581C353.164 852.108 355.551 850.418 357.924 848.744L359.644 847.534Z" fill="url(#paint12_linear_36_2956)"/>
<path d="M361.721 333.347L359.101 333.905C338.138 345.597 317.175 357.297 296.212 369.005C284.366 376.959 276.892 374.432 265.806 368.013C263.573 353.996 278.954 338.754 275.031 332.676C251.773 310.302 175.208 398.45 172.712 372.122C175.875 350.43 185.798 330.195 192.125 309.294C175.301 309.604 162.432 326.986 145.082 328.769C135.236 285.869 165.75 242.156 193.458 211.704C240.501 200.604 292.758 214.076 331.285 266.404C329.426 268.908 327.903 271.645 326.757 274.545C317.718 299.725 337.057 313.23 353.857 307.819L354.183 308.858C357.474 316.761 359.998 324.962 361.721 333.347Z" fill="url(#paint13_linear_36_2956)"/>
<path d="M343.751 665.594L343.782 665.424C350.555 644.844 355.053 623.584 357.194 602.024C339.239 604.597 321.904 610.148 311.376 625.235C296.956 650.259 322.447 662.245 343.751 665.594ZM361.751 678.479C386.777 651.546 367.783 641.809 350.278 671.068H350.262C350.293 685.953 350.991 701.024 351.471 715.924C351.549 718.142 351.611 720.359 351.671 722.561C348.477 723.061 345.236 723.615 341.965 724.204C333.778 725.677 325.343 727.304 316.865 728.623C293.746 732.251 270.194 733.631 249.556 723.223C248.856 722.867 248.161 722.51 247.463 722.123C206.901 687.578 223.569 613.323 261.063 582.328C295.671 555.597 340.109 547.053 381.834 537.099L381.911 537.083C382.249 538.195 382.907 539.182 383.803 539.921C400.967 544.092 419.217 540.34 436.769 541.115C452.476 541.456 458.833 542.727 460.384 536.556C469.084 536.179 477.8 536.5 486.448 537.518L486.711 537.642C484.448 542.696 484.355 548.712 487.673 554.961C474.106 547.115 458.895 565.101 459.05 578.095C437.064 578.327 415.232 577.909 393.928 576.808C393.385 610.672 389.261 644.38 385.628 678.108C377.738 677.967 369.226 675.611 361.752 678.479H361.751Z" fill="url(#paint14_linear_36_2956)"/>
<path d="M225.787 143.159L240.222 161.3L220.375 157.78L208.002 173.193L207.537 152.261L186.248 146.958L202.42 135.019L202.668 114.381L217.135 130.894L236.392 128.15L225.787 143.159Z" fill="url(#paint15_linear_36_2956)"/>
<path d="M207.754 491.533L207.723 491.796C171.115 486.478 137.112 468.151 110.846 439.714C126.146 433.884 141.67 418.999 158.494 422.24C155.277 427.967 153.74 434.486 154.059 441.048C188.959 444.04 215.15 372.669 233.694 383.058C224.019 402.967 211.336 421.852 203.35 442.381C205.955 463.05 240.935 436.008 247.928 427.93C258.844 418.348 274.117 402.703 288.8 407.975C274.148 443.683 238.113 467.901 207.754 491.533Z" fill="url(#paint16_linear_36_2956)"/>
<path d="M380.652 444.366C374.745 455.266 373.024 481.377 389.521 469.329C390.529 468.368 391.491 467.407 392.39 466.414C395.89 462.6 398.328 458.476 397.615 453.126C393.041 426.767 407.322 403.226 436.347 408.641C445.325 410.208 453.481 414.766 462.102 417.635C465.161 418.692 468.32 419.435 471.529 419.852C503.842 423.139 496.896 388.376 469.095 397.571C506.323 381.011 482.367 347.954 457.838 382.298C475.126 348.853 444.1 339.085 438.983 374.685C441.976 343.612 410.934 348.217 417.85 377.445C408.686 348.574 381.242 362.545 393.94 388.392C374.84 377.692 355.44 410.052 384.017 410.921C377.317 415.045 359.627 434.969 363.271 447.002C368.31 452.863 376.202 449.544 380.652 444.366" stroke="#171717" stroke-width="4.652" stroke-linecap="round" stroke-linejoin="round"/>
<path d="M380.652 444.365C381.44 443.46 382.126 442.472 382.699 441.419C381.886 442.303 381.198 443.295 380.652 444.365V444.365Z" stroke="#171717" stroke-width="4.652" stroke-linecap="round" stroke-linejoin="round"/>
<path d="M448.815 425.914C407.462 406.145 452.365 467.329 429.433 465.814" stroke="#171717" stroke-width="4.652" stroke-linecap="round" stroke-linejoin="round"/>
<path d="M418.92 434.458C417.144 433.2 415 432.573 412.827 432.675C410.669 432.789 408.56 433.36 406.64 434.349" stroke="#171717" stroke-width="4.652" stroke-linecap="round" stroke-linejoin="round"/>
<path d="M440.225 437.062C440.96 436.481 441.823 436.083 442.742 435.902C443.662 435.722 444.611 435.763 445.512 436.023C447.304 436.563 448.967 437.465 450.396 438.674" stroke="#171717" stroke-width="4.652" stroke-linecap="round" stroke-linejoin="round"/>
<path d="M405.445 475.546C406.399 478.176 408.184 480.423 410.531 481.946C411.709 482.691 413.039 483.164 414.423 483.33C415.807 483.497 417.21 483.352 418.531 482.907" stroke="#171717" stroke-width="4.652" stroke-linecap="round" stroke-linejoin="round"/>
<path d="M462.1 417.557V417.635C461.138 433.853 460.171 450.076 459.2 466.306C460.441 497.719 432.314 487.222 434.252 518.248" stroke="#171717" stroke-width="4.652" stroke-linecap="round" stroke-linejoin="round"/>
<path d="M392.344 466.088L392.391 466.413C394.585 482.861 395.157 499.486 394.097 516.046" stroke="#171717" stroke-width="4.652" stroke-linecap="round" stroke-linejoin="round"/>
<path d="M393.956 517.674C391.894 517.534 389.847 517.333 387.785 517.084C384.668 516.384 382.777 518.837 382.685 521.829C382.902 526.264 380.467 532.698 381.909 537.086C382.247 538.198 382.905 539.185 383.801 539.924C400.965 544.095 419.215 540.343 436.767 541.118C452.474 541.459 458.831 542.73 460.382 536.559C461.048 533.959 460.847 530.016 460.118 524.124C459.172 516.402 446.411 518.511 437.372 518.418C436.333 518.403 435.294 518.403 434.255 518.403C420.765 518.34 407.415 518.775 393.956 517.674Z" stroke="#171717" stroke-width="4.652" stroke-linecap="round" stroke-linejoin="round"/>
<path d="M381.832 537.101C340.107 547.055 295.669 555.601 261.061 582.33C223.569 613.33 206.901 687.58 247.461 722.125C248.161 722.513 248.856 722.87 249.554 723.225C270.192 733.625 293.744 732.249 316.863 728.625C325.344 727.307 333.779 725.679 341.963 724.206C345.234 723.617 348.475 723.059 351.669 722.563C351.607 720.363 351.545 718.144 351.469 715.926C350.988 701.026 350.29 685.954 350.259 671.069C350.244 669.503 350.244 667.936 350.259 666.369C348.166 666.199 345.98 665.951 343.747 665.594C322.447 662.245 296.952 650.259 311.372 625.234C321.9 610.147 339.235 604.596 357.19 602.022C366.819 600.642 376.634 600.115 385.642 599.433" stroke="#171717" stroke-width="4.652" stroke-linecap="round" stroke-linejoin="round"/>
<path d="M350.278 671.069C367.778 641.81 386.778 651.547 361.751 678.48C369.225 675.612 377.737 677.968 385.63 678.108C386.002 678.124 386.358 678.124 386.715 678.124" stroke="#171717" stroke-width="4.652" stroke-linecap="round" stroke-linejoin="round"/>
<path d="M351.379 715.909C351.41 715.909 351.441 715.924 351.472 715.924C361.489 717.94 371.5 719.961 381.506 721.987C381.806 722.033 382.095 722.095 382.39 722.157" stroke="#171717" stroke-width="4.652" stroke-linecap="round" stroke-linejoin="round"/>
<path d="M381.676 706.745C376.388 705.273 371.026 704.077 365.612 703.164" stroke="#171717" stroke-width="4.652" stroke-linecap="round" stroke-linejoin="round"/>
<path d="M383.832 690.108C378.813 688.711 373.69 687.721 368.513 687.147" stroke="#171717" stroke-width="4.652" stroke-linecap="round" stroke-linejoin="round"/>
<path d="M459.064 578.47C459.067 578.346 459.061 578.222 459.048 578.098C458.893 565.104 474.104 547.118 487.671 554.964C484.353 548.715 484.446 542.699 486.71 537.645C491.41 527.117 505.487 520.79 517.565 525.426C517.765 525.504 517.984 525.582 518.185 525.675" stroke="#171717" stroke-width="4.652" stroke-linecap="round" stroke-linejoin="round"/>
<path d="M514.929 533.613C515.425 530.775 516.313 528.02 517.565 525.426C518.794 522.65 521.026 520.441 523.814 519.24C525.01 518.759 526.278 518.481 527.566 518.418" stroke="#171717" stroke-width="4.652" stroke-linecap="round" stroke-linejoin="round"/>
<path d="M564.438 435.714C561.811 434.7 559.064 434.027 556.266 433.714C528.838 430.566 506.991 464.057 525.674 485.16C527.528 487.237 529.626 489.084 531.923 490.66" stroke="#171717" stroke-width="4.652" stroke-linecap="round" stroke-linejoin="round"/>
<path d="M591.152 350.79C588.056 351.285 585.055 352.252 582.252 353.659C564.018 362.915 561.752 389.197 571.011 407.571C572.1 409.755 573.376 411.841 574.825 413.804" stroke="#171717" stroke-width="4.652" stroke-linecap="round" stroke-linejoin="round"/>
<path d="M694.325 340.169C694.325 340.185 694.325 340.185 694.341 340.2C703.21 376.343 675.176 413.37 640.088 401.322C636.123 399.938 632.334 398.091 628.8 395.822" stroke="#171717" stroke-width="4.652" stroke-linecap="round" stroke-linejoin="round"/>
<path d="M608.983 517.287C610.949 517.444 612.924 517.455 614.891 517.318C656.073 514.868 662.725 452.692 623.605 442.583C620.091 441.7 616.484 441.242 612.86 441.218" stroke="#171717" stroke-width="4.652" stroke-linecap="round" stroke-linejoin="round"/>
<path d="M604.767 618.009C608.63 619.04 612.614 619.552 616.613 619.529C652.787 618.878 644.786 561.539 611.667 553.523C608.984 552.868 606.228 552.556 603.467 552.593" stroke="#171717" stroke-width="4.652" stroke-linecap="round" stroke-linejoin="round"/>
<path d="M623.389 443.016C623.47 442.876 623.543 442.731 623.606 442.582C625.489 438.725 626.217 434.406 625.702 430.145C625.188 425.884 623.453 421.863 620.706 418.564" stroke="#171717" stroke-width="4.652" stroke-linecap="round" stroke-linejoin="round"/>
<path d="M609.744 421.153C613.436 420.474 617.086 419.584 620.675 418.486C629.467 415.695 637.437 410.997 640.088 401.322C640.103 401.275 640.119 401.213 640.135 401.167" stroke="#171717" stroke-width="4.652" stroke-linecap="round" stroke-linejoin="round"/>
<path d="M571.368 407.354C571.243 407.431 571.135 407.494 571.011 407.572C562.685 412.642 557.382 424.192 556.281 433.589" stroke="#171717" stroke-width="4.652" stroke-linecap="round" stroke-linejoin="round"/>
<path d="M525.674 485.159C514.402 492.896 518.201 508.774 523.752 519.085" stroke="#171717" stroke-width="4.652" stroke-linecap="round" stroke-linejoin="round"/>
<path d="M576.051 287.2C575.958 287.262 575.865 287.34 575.788 287.4C550.188 306.642 560.794 335.42 582.176 352.77" stroke="#171717" stroke-width="4.652" stroke-linecap="round" stroke-linejoin="round"/>
<path d="M611.573 553.692C611.604 553.63 611.635 553.584 611.666 553.522C617.449 542.699 616.907 529.148 614.891 517.317C614.875 517.255 614.875 517.193 614.86 517.131" stroke="#171717" stroke-width="4.652" stroke-linecap="round" stroke-linejoin="round"/>
<path d="M577.881 658.586C600.224 663.532 617.981 646.74 617.187 625.311C617.129 623.538 616.942 621.771 616.628 620.024" stroke="#171717" stroke-width="4.652" stroke-linecap="round" stroke-linejoin="round"/>
<path d="M717.149 427.015C715.754 423.422 713.65 420.148 710.963 417.386C695.892 402.086 666.928 410.719 663.005 434.675C651.531 465.406 679.505 493.052 704.357 474.089C706.565 472.39 708.605 470.485 710.451 468.399" stroke="#171717" stroke-width="4.652" stroke-linecap="round" stroke-linejoin="round"/>
<path d="M689.488 537.645C688.01 536.646 686.416 535.828 684.743 535.21C664.524 527.721 645.003 556.049 657.593 574.516C669.893 595.929 703.505 588.967 707.955 566.081C708.215 564.725 708.37 563.352 708.42 561.972" stroke="#171717" stroke-width="4.652" stroke-linecap="round" stroke-linejoin="round"/>
<path d="M704.311 474.011C704.326 474.042 704.342 474.057 704.357 474.088C727.15 512.076 765.836 470.243 763.029 439.279C761.429 414.486 729.755 401.213 710.963 417.385C710.909 417.441 710.852 417.493 710.792 417.541" stroke="#171717" stroke-width="4.652" stroke-linecap="round" stroke-linejoin="round"/>
<path d="M707.969 566.081C728.979 573.181 750.004 543.242 736.7 525.798C723.242 509.611 691.347 513.472 684.99 534.574" stroke="#171717" stroke-width="4.652" stroke-linecap="round" stroke-linejoin="round"/>
<path d="M556.483 396.236C554.297 376.948 517.224 378.111 520.155 399.492C521.6 430.425 557.352 423.774 556.483 396.236Z" stroke="#171717" stroke-width="4.652" stroke-linecap="round" stroke-linejoin="round"/>
<path d="M551.846 346.542C568.328 316.167 529.146 311.205 520.646 335.828C519.599 352.279 542.915 361.613 551.846 346.542Z" stroke="#171717" stroke-width="4.652" stroke-linecap="round" stroke-linejoin="round"/>
<path d="M633.219 159.657C616.566 166.417 601.263 176.139 589.665 188.931C582.094 197.163 576.276 206.848 572.565 217.398C571.209 221.301 570.157 225.303 569.418 229.368C564.068 248.207 562.456 272.023 575.79 287.405C577.326 289.172 579.023 290.791 580.861 292.242C582.303 293.342 584.551 294.274 585.745 292.878C587.545 268.922 601.157 242.998 628.974 247.078" stroke="#171717" stroke-width="4.652" stroke-linecap="round" stroke-linejoin="round"/>
<path d="M731.724 185.488C752.346 224.388 760.936 277.249 732.872 314.663C724.266 327.052 710.203 343.363 694.341 340.2C693.194 339.985 692.068 339.668 690.976 339.254C684.728 334.432 686.991 324.013 687.937 309.562C688.495 300.569 688.573 290.01 685.737 278.272C684.412 272.767 682.558 267.404 680.201 262.255" stroke="#171717" stroke-width="4.652" stroke-linecap="round" stroke-linejoin="round"/>
<path d="M686.541 232.269C693.007 197.025 692.65 159.564 664.988 182.869C650.243 201.522 637.637 223.524 630.458 246.844C630.396 247.061 630.319 247.278 630.258 247.48C626.458 259.764 624.391 272.518 624.117 285.374C623.792 298.306 630.134 317.191 645.685 314.819C659.035 308.555 664.585 292.212 671.657 280.056C673.13 278.242 674.851 274.676 676.649 269.9C677.58 267.4 678.541 264.582 679.487 261.512C682.388 251.905 684.743 242.142 686.541 232.269V232.269Z" stroke="#171717" stroke-width="4.652" stroke-linecap="round" stroke-linejoin="round"/>
<path d="M680.138 261.712C692.511 253.169 704.807 236.733 714.855 218.949C720.417 209.101 725.302 198.885 729.476 188.372C729.91 187.287 730.329 186.202 730.732 185.132C732.639 180.077 734.221 175.286 735.415 170.898C739.927 154.398 747.447 129.762 749.715 106.117C752.274 79.5873 748.242 54.2833 726.023 43.0413C705.076 32.4513 685.43 51.4763 669.123 78.6103C662.343 90.1406 656.29 102.082 650.997 114.366C645.787 126.227 641.229 137.98 637.43 148.353H637.414C635.957 152.369 634.593 156.183 633.368 159.703C633.089 160.478 632.825 161.223 632.577 161.951C630.281 168.653 628.655 175.566 627.724 182.589C627.062 187.418 626.643 192.277 626.468 197.148C625.832 213.631 627.553 230.485 629.414 246.517" stroke="#171717" stroke-width="4.652" stroke-linecap="round" stroke-linejoin="round"/>
<path d="M251.044 723.135L249.555 723.228C229.414 724.453 208.885 725.957 190.325 733.865C171.331 741.959 154.492 758.286 151.625 778.737C149.425 794.553 155.858 810.694 166.107 822.927C176.356 835.177 190.093 843.984 204.219 851.411C236.067 868.141 270.819 878.746 305.933 886.484C373.18 901.307 442.427 905.927 511.254 904.16C519.41 903.942 528.729 902.997 534.202 897.446C534.995 896.636 535.697 895.741 536.295 894.779C537.57 892.619 538.379 890.215 538.668 887.724C538.952 885.597 539.051 883.449 538.962 881.305C538.757 873.519 537.399 865.806 534.931 858.419" stroke="#171717" stroke-width="4.652" stroke-linecap="round" stroke-linejoin="round"/>
<path d="M574.315 710.637C597.386 708.73 621.215 708.668 642.957 716.684C664.679 724.684 684.092 742.113 689.023 764.751C689.581 767.336 689.954 769.958 690.139 772.596C691.116 786.179 686.945 800.227 677.998 810.491C673.083 816.12 666.912 820.508 660.524 824.399C650.574 830.384 640.056 835.37 629.124 839.284C615.819 844.004 602.128 847.553 588.205 849.89C575.339 852.084 562.37 853.631 549.349 854.526C547.395 854.681 545.442 854.805 543.488 854.926C540.588 855.112 537.673 855.267 534.774 855.407C487.231 857.738 439.576 854.738 392.7 846.463C389.413 845.89 386.064 845.254 383.164 843.595C382.918 843.46 382.679 843.31 382.451 843.145C379.704 841.351 377.564 838.767 376.311 835.734C373.489 829.346 373.628 821.004 374.811 813.825C375.735 808.013 377.246 802.308 379.32 796.8C383.15 786.892 389.212 778.147 398.609 773.62" stroke="#171717" stroke-width="4.652" stroke-linecap="round" stroke-linejoin="round"/>
<path d="M393.925 576.811C415.225 577.911 437.061 578.331 459.047 578.099C500.103 577.692 541.1 574.912 581.834 569.772C580.795 599.604 578.19 629.079 576.205 658.472C575.197 673.45 574.329 688.398 573.926 703.36C573.848 705.779 573.802 708.198 573.755 710.617C573.322 729.616 573.949 748.624 575.632 767.552C517.58 774.188 457.063 768.499 398.561 773.104C392.421 773.585 386.281 774.173 380.187 774.917C379.97 774.948 379.753 774.964 379.536 774.995C376.807 772.483 374.042 770.017 371.241 767.595C354.39 753.002 336.195 740.036 316.899 728.871" stroke="#171717" stroke-width="4.652" stroke-linecap="round" stroke-linejoin="round"/>
<path d="M393.926 576.812C393.383 610.676 389.259 644.384 385.626 678.112C384.044 692.733 382.571 707.355 381.501 721.992C380.801 731.605 380.276 741.234 380.028 750.878C379.858 758.429 379.828 765.996 380.028 773.578" stroke="#171717" stroke-width="4.652" stroke-linecap="round" stroke-linejoin="round"/>
<path d="M342.014 724.452C354.464 733.368 366.998 742.17 379.614 750.858" stroke="#171717" stroke-width="4.652" stroke-linecap="round" stroke-linejoin="round"/>
<path d="M497.9 642.6C495.964 641.242 493.795 640.254 491.5 639.685C480.537 636.491 466.893 637.297 460.644 648.244C451.232 662.586 453.144 676.727 460.21 685.782C462.143 688.25 464.494 690.36 467.156 692.015C478.196 698.853 493.965 696.884 504.586 678.278C506.42 674.227 507.432 669.853 507.565 665.409C507.698 660.964 506.949 656.537 505.361 652.384C503.876 648.468 501.284 645.068 497.9 642.6V642.6Z" stroke="#171717" stroke-width="4.652" stroke-linecap="round" stroke-linejoin="round"/>
<path d="M458.163 687.627C438.627 714.11 449.635 707.877 467.156 692.015C480.746 679.658 493.507 666.419 505.356 652.384C512.303 643.949 516.939 636.971 516.784 633.87C510.907 633.033 506.023 637.421 502.178 641.313" stroke="url(#paint17_linear_36_2956)" stroke-width="4.652" stroke-linecap="round" stroke-linejoin="round"/>
<path d="M362.373 381.8C355.922 418.268 334.06 451.248 301.933 472.8C294.19 477.99 285.978 482.443 277.404 486.1C254.901 493.217 231.082 495.162 207.723 491.79C171.115 486.472 137.112 468.145 110.846 439.708C107.59 436.175 104.452 432.49 101.434 428.653C83.2617 400.153 76.4397 371.268 78.0677 344.196C80.6407 301.478 104.241 263.289 137.375 238.325C154.023 225.663 173.121 216.597 193.458 211.703C240.501 200.603 292.758 214.075 331.285 266.403L331.517 266.729" stroke="#171717" stroke-width="4.652" stroke-linecap="round" stroke-linejoin="round"/>
<path d="M354.186 308.864C357.475 316.765 359.998 324.964 361.721 333.347C365.009 349.306 365.231 365.744 362.373 381.785" stroke="#171717" stroke-width="4.652" stroke-linecap="round" stroke-linejoin="round"/>
<path d="M331.285 266.41C329.425 268.914 327.902 271.651 326.757 274.551C317.717 299.731 337.057 313.236 353.857 307.825C360.695 305.639 367.114 300.29 371.037 291.343C380.793 260.922 347.55 244.843 331.285 266.41Z" stroke="#171717" stroke-width="4.652" stroke-linecap="round" stroke-linejoin="round"/>
<path d="M193.551 211.601C193.52 211.632 193.489 211.679 193.458 211.71C165.75 242.162 135.236 285.872 145.082 328.775C162.432 326.992 175.301 309.61 192.125 309.3C185.798 330.2 175.875 350.436 172.712 372.128C175.212 398.456 251.773 310.308 275.031 332.682C278.954 338.76 263.573 354.002 265.806 368.019C276.892 374.438 284.366 376.965 296.212 369.011C317.175 357.305 338.138 345.605 359.101 333.911" stroke="#171717" stroke-width="4.652" stroke-linecap="round" stroke-linejoin="round"/>
<path d="M138.585 236.347C138.166 236.998 137.763 237.665 137.375 238.331C128.757 252.692 123.504 268.819 122.01 285.501C126.041 284.755 130.072 284.016 134.104 283.283C134.615 297.564 107.946 352.592 97.2628 363.12C96.6114 354.443 96.8765 345.722 98.0538 337.102C89.7738 340.761 90.1148 355.352 81.2928 357.302C80.5928 353.969 78.5018 347.627 78.2998 344.216" stroke="#171717" stroke-width="4.652" stroke-linecap="round" stroke-linejoin="round"/>
<path d="M110.3 439.931C110.486 439.869 110.657 439.792 110.843 439.714C126.143 433.884 141.667 418.999 158.491 422.24C155.274 427.967 153.737 434.486 154.056 441.048C188.956 444.04 215.147 372.669 233.691 383.058C224.016 402.967 211.333 421.852 203.347 442.381C205.952 463.05 240.932 436.008 247.925 427.93C258.841 418.348 274.114 402.703 288.797 407.975C274.145 443.683 238.11 467.903 207.751 491.533C208.805 491.486 209.86 491.424 210.914 491.378" stroke="#171717" stroke-width="4.652" stroke-linecap="round" stroke-linejoin="round"/>
<path d="M301.483 472.12C293.829 469.78 285.605 470.136 278.183 473.128C260.988 474.928 293.502 446.149 300.03 432.551C300.976 430.951 302.774 429.108 304.356 430.085C323.334 452.94 340.7 340.356 362.377 381.785V381.801C362.423 381.863 362.454 381.94 362.501 382.018" stroke="#171717" stroke-width="4.652" stroke-linecap="round" stroke-linejoin="round"/>
<path d="M357.208 601.853C357.208 601.915 357.193 601.961 357.193 602.023C355.052 623.582 350.554 644.843 343.781 665.423" stroke="#171717" stroke-width="4.652" stroke-linecap="round" stroke-linejoin="round"/>
<path d="M574.314 703.381C576.081 703.013 577.817 702.512 579.508 701.881C582.767 700.613 585.889 699.018 588.826 697.12C600.75 689.662 610.968 679.12 616.612 666.25C622.256 653.38 623 638.123 617.212 625.316" stroke="#171717" stroke-width="4.652" stroke-linecap="round" stroke-linejoin="round"/>
<path d="M371.676 767.681C371.536 767.65 371.376 767.634 371.242 767.603C365.83 766.596 360.233 765.619 354.868 766.828C348.495 768.255 343.224 772.565 338.308 776.876C326.873 786.871 316.022 797.514 305.808 808.754C301.653 813.329 297.56 818.054 294.691 823.547C291.823 829.02 290.241 835.377 291.42 841.455C292.21 845.517 294.179 849.239 296.226 852.836C300.568 860.436 305.638 867.969 313.049 872.636C315.632 874.335 318.551 875.456 321.608 875.923C326.818 876.575 331.981 874.683 336.803 872.59C353.325 865.419 368.607 855.674 382.079 843.719" stroke="#171717" stroke-width="4.652" stroke-linecap="round" stroke-linejoin="round"/>
<path d="M379.118 796.723C376.021 797.193 372.956 797.851 369.939 798.693C365.419 799.941 360.985 801.485 356.667 803.313C353.225 804.74 349.829 806.306 346.48 807.965C346.294 808.058 346.092 808.151 345.906 808.244C341.077 810.537 336.468 813.267 332.137 816.4C330.627 817.535 329.187 818.762 327.827 820.074C322.633 825.114 318.727 831.812 318.353 839.037C317.979 846.262 321.687 853.891 328.246 856.93C330.237 857.819 332.378 858.327 334.556 858.43C337.776 858.54 340.987 858.009 344 856.868C346.328 855.989 348.566 854.888 350.683 853.581C353.164 852.108 355.551 850.418 357.924 848.744L359.645 847.534C363.831 844.572 368.012 841.611 372.189 838.65C373.569 837.673 374.949 836.696 376.313 835.735C376.453 835.626 376.613 835.535 376.747 835.424" stroke="#171717" stroke-width="4.652" stroke-linecap="round" stroke-linejoin="round"/>
<path d="M374.125 843.75C373.489 842.044 372.838 840.339 372.187 838.65C369.815 832.542 367.308 826.489 364.666 820.493C362.139 814.71 359.472 808.983 356.666 803.313C355.317 800.569 353.937 797.824 352.526 795.113" stroke="#171717" stroke-width="4.652" stroke-linecap="round" stroke-linejoin="round"/>
<path d="M358.5 855.318C358.857 852.713 359.245 850.124 359.648 847.534C361.059 838.478 362.733 829.465 364.671 820.493C366.253 813.189 368.01 805.923 369.943 798.693C370.343 797.193 370.765 795.685 371.184 794.181" stroke="#171717" stroke-width="4.652" stroke-linecap="round" stroke-linejoin="round"/>
<path d="M353.349 858.061C352.418 856.588 351.519 855.1 350.682 853.58C347.038 847.18 344.045 840.416 340.975 833.702C338.349 827.777 335.399 822.002 332.137 816.402C330.703 814.006 329.146 811.688 327.47 809.455" stroke="#171717" stroke-width="4.652" stroke-linecap="round" stroke-linejoin="round"/>
<path d="M332.959 863.179C333.517 861.613 334.045 860.016 334.559 858.435C337.133 850.325 339.133 842.035 340.978 833.704C341.63 830.711 342.265 827.734 342.901 824.741C344.095 819.141 345.289 813.549 346.483 807.965C346.87 806.12 347.274 804.274 347.661 802.429" stroke="#171717" stroke-width="4.652" stroke-linecap="round" stroke-linejoin="round"/>
<path d="M534.978 897.801C556.655 907.174 579.33 914.046 602.565 918.284C609.124 919.462 615.791 920.455 622.443 919.912C629.095 919.369 635.778 917.167 640.724 912.687C644.119 909.601 646.538 905.601 648.817 901.616C651.732 896.53 654.554 891.243 655.547 885.459C657.128 876.218 653.795 866.667 648.461 858.959C643.22 851.377 636.133 845.267 629.125 839.282C629.001 839.174 628.892 839.082 628.768 838.972" stroke="#171717" stroke-width="4.652" stroke-linecap="round" stroke-linejoin="round"/>
<path d="M541.614 892.685C542.932 891.599 544.265 890.514 545.599 889.398C549.925 885.847 554.256 882.203 558.592 878.466C568.988 869.664 578.905 860.312 588.3 850.448C589.835 850.913 591.355 851.394 592.874 851.89C600.146 854.216 607.325 856.816 614.411 859.69C616.212 860.37 617.954 861.195 619.621 862.156C620.924 862.908 622.097 863.866 623.094 864.993C625.311 867.583 626.226 871.009 626.908 874.328C627.87 879.057 628.443 884.049 627.033 888.654C625.048 895.182 619.202 900.054 612.733 902.206C608.516 903.541 604.093 904.103 599.677 903.865C597.267 903.763 594.865 903.519 592.483 903.136C587.35 902.314 582.278 901.144 577.303 899.636C573.103 898.396 568.946 897 564.803 895.574C558.43 893.403 552.058 891.174 545.592 889.403C543.406 888.798 541.219 888.255 539.002 887.775" stroke="#171717" stroke-width="4.652" stroke-linecap="round" stroke-linejoin="round"/>
<path d="M566.22 899.507C565.755 898.189 565.289 896.871 564.809 895.569C562.793 889.847 560.721 884.147 558.591 878.469C555.615 870.453 552.534 862.473 549.35 854.529C549.319 854.467 549.303 854.39 549.272 854.329" stroke="#171717" stroke-width="4.652" stroke-linecap="round" stroke-linejoin="round"/>
<path d="M573.073 903.368C574.484 902.127 575.895 900.868 577.306 899.631C583.617 894.049 589.928 888.472 596.238 882.901L619.538 862.294" stroke="#171717" stroke-width="4.652" stroke-linecap="round" stroke-linejoin="round"/>
<path d="M600.799 909.648C600.411 907.726 600.039 905.803 599.682 903.865C598.364 896.903 597.217 889.915 596.24 882.902C594.767 872.606 593.645 862.269 592.875 851.891C592.875 851.829 592.86 851.783 592.86 851.721" stroke="#171717" stroke-width="4.652" stroke-linecap="round" stroke-linejoin="round"/>
<path d="M749.633 106.101C745.524 100.845 739.679 97.2317 733.755 94.1617C713.807 83.8723 691.667 78.558 669.222 78.6717" stroke="#171717" stroke-width="4.652" stroke-linecap="round" stroke-linejoin="round"/>
<path d="M680.726 114.846C678.831 117.494 677.611 120.565 677.174 123.792C676.736 127.019 677.093 130.304 678.214 133.361C679.335 136.419 681.186 139.156 683.606 141.335C686.026 143.514 688.942 145.068 692.1 145.863C695.258 146.659 698.562 146.67 701.725 145.897C704.889 145.125 707.815 143.59 710.251 141.429C712.686 139.267 714.557 136.543 715.699 133.494C716.842 130.444 717.222 127.162 716.807 123.932C716.473 121.281 715.574 118.733 714.171 116.459C706.682 104.613 689.13 103.109 680.726 114.846Z" stroke="#171717" stroke-width="4.652" stroke-linecap="round" stroke-linejoin="round"/>
<path d="M651.577 114.629C656.399 116.521 661.283 118.242 666.23 119.792C661.036 131.342 656.616 143.225 653 155.362C648.076 152.48 642.857 150.136 637.433 148.369" stroke="#171717" stroke-width="4.652" stroke-linecap="round" stroke-linejoin="round"/>
<path d="M714.512 218.764C709.74 216.73 705.206 214.176 700.992 211.151C706.652 201.195 712.001 191.081 717.04 180.807C720.84 183.195 724.644 185.582 728.452 187.97" stroke="#171717" stroke-width="4.652" stroke-linecap="round" stroke-linejoin="round"/>
<path d="M625.978 197.086C626.133 197.102 626.303 197.117 626.458 197.148C628.34 197.372 630.205 197.719 632.041 198.187C634.46 198.745 636.894 199.319 639.328 199.877C639.625 194.032 640.55 188.236 642.088 182.589C642.166 182.31 642.196 181.922 641.932 181.798C641.837 181.77 641.736 181.765 641.638 181.783L628.211 182.666" stroke="#171717" stroke-width="4.652" stroke-linecap="round" stroke-linejoin="round"/>
<path d="M572.454 217.321C572.485 217.352 572.531 217.367 572.562 217.398C578.904 222.174 585.401 226.733 592.053 231.074C597.744 222.712 602.968 214.041 607.7 205.1L590.4 189.563" stroke="#171717" stroke-width="4.652" stroke-linecap="round" stroke-linejoin="round"/>
<path d="M685.922 278.226C694.95 278.205 703.968 277.656 712.932 276.582C711.35 280.892 710.823 285.498 710.311 290.056C709.428 297.747 708.554 305.443 707.691 313.143C702.078 310.523 695.349 312.074 689.472 310.197C689.328 310.17 689.192 310.114 689.071 310.031C688.951 309.948 688.849 309.841 688.772 309.717C688.759 309.682 688.753 309.645 688.756 309.608C688.756 309.36 689.02 309.081 689.221 309.236" stroke="#171717" stroke-width="4.652" stroke-linecap="round" stroke-linejoin="round"/>
<path d="M676.525 269.853C670.286 266.076 663.645 263.008 656.725 260.705C662.509 249.091 667.755 237.225 672.463 225.105C676.5 228.229 681.056 230.617 685.922 232.16" stroke="#171717" stroke-width="4.652" stroke-linecap="round" stroke-linejoin="round"/>
<path d="M602.399 205.4C602.35 205.2 602.231 205.024 602.063 204.904C601.895 204.785 601.69 204.73 601.484 204.749C601.12 204.8 600.784 204.97 600.528 205.234C600.272 205.498 600.112 205.84 600.073 206.206C600.027 206.479 600.044 206.759 600.122 207.025C600.199 207.291 600.336 207.536 600.522 207.741C600.715 207.944 600.965 208.084 601.239 208.142C601.513 208.2 601.799 208.174 602.057 208.067C602.252 207.936 602.419 207.767 602.548 207.571C602.677 207.375 602.766 207.155 602.81 206.924C602.853 206.693 602.85 206.456 602.801 206.226C602.752 205.996 602.657 205.779 602.523 205.586" stroke="#171717" stroke-width="4.652" stroke-linecap="round" stroke-linejoin="round"/>
<path d="M591.665 223.12C591.216 223.039 590.753 223.14 590.378 223.399C590.219 223.521 590.085 223.674 589.986 223.849C589.887 224.024 589.824 224.217 589.801 224.416C589.778 224.616 589.795 224.818 589.852 225.011C589.908 225.204 590.003 225.383 590.13 225.539C590.275 225.676 590.449 225.777 590.64 225.834C590.831 225.891 591.032 225.903 591.228 225.868C591.424 225.833 591.609 225.753 591.769 225.634C591.928 225.515 592.057 225.36 592.146 225.182C592.21 224.868 592.207 224.545 592.139 224.232C592.07 223.92 591.936 223.625 591.746 223.368" stroke="#171717" stroke-width="4.652" stroke-linecap="round" stroke-linejoin="round"/>
<path d="M675.254 231.756C674.902 231.643 674.527 231.627 674.166 231.708C673.806 231.79 673.475 231.967 673.207 232.221C672.942 232.484 672.771 232.826 672.718 233.196C672.665 233.565 672.733 233.941 672.913 234.268C673.106 234.584 673.41 234.816 673.766 234.919C674.121 235.022 674.502 234.989 674.835 234.826C674.99 234.733 675.124 234.608 675.229 234.459C675.333 234.31 675.405 234.141 675.44 233.963C675.475 233.785 675.472 233.602 675.432 233.425C675.392 233.248 675.315 233.081 675.207 232.935" stroke="#171717" stroke-width="4.652" stroke-linecap="round" stroke-linejoin="round"/>
<path d="M666.99 254.456C666.711 254.336 666.405 254.295 666.105 254.336C665.804 254.376 665.521 254.498 665.284 254.688C664.818 255.077 664.451 255.571 664.214 256.13C663.986 256.529 663.843 256.972 663.796 257.43C663.776 257.663 663.817 257.896 663.915 258.108C664.012 258.32 664.164 258.503 664.354 258.639C664.581 258.768 664.837 258.837 665.098 258.839C666.214 258.916 667.548 258.296 667.625 257.18C667.603 256.548 667.368 255.941 666.959 255.459" stroke="#171717" stroke-width="4.652" stroke-linecap="round" stroke-linejoin="round"/>
<path d="M650.2 145.9C649.975 145.906 649.753 145.959 649.549 146.055C649.235 146.184 648.963 146.397 648.763 146.671C648.564 146.944 648.444 147.268 648.417 147.606C648.414 147.83 648.459 148.051 648.547 148.256C648.635 148.461 648.765 148.646 648.928 148.798C649.092 148.95 649.285 149.066 649.497 149.138C649.708 149.211 649.932 149.239 650.154 149.219C650.483 149.119 650.789 148.953 651.053 148.732C651.316 148.511 651.533 148.239 651.689 147.932C651.795 147.794 651.855 147.626 651.86 147.451C651.822 147.302 651.741 147.167 651.627 147.063C651.319 146.737 650.976 146.446 650.604 146.195C650.495 146.133 650.278 146.133 650.231 146.195C650.2 146.226 650.2 146.257 650.231 146.304" stroke="#171717" stroke-width="4.652" stroke-linecap="round" stroke-linejoin="round"/>
<path d="M660.151 121.592C660.013 121.48 659.852 121.398 659.68 121.351C659.508 121.304 659.329 121.293 659.152 121.32C658.976 121.346 658.807 121.408 658.656 121.503C658.505 121.598 658.376 121.723 658.276 121.871C658.105 122.19 658.058 122.561 658.143 122.913C658.229 123.265 658.442 123.573 658.741 123.778C659.051 123.963 659.413 124.044 659.774 124.008C660.134 123.972 660.473 123.821 660.741 123.578C661.175 123.159 661.267 122.278 660.693 122.078" stroke="#171717" stroke-width="4.652" stroke-linecap="round" stroke-linejoin="round"/>
<path d="M879.411 196.838C881.714 194.277 883.41 191.23 884.373 187.923C889.473 169.487 872.373 150.4 854.215 149.997C852.403 149.951 850.59 150.085 848.804 150.397C841.581 151.602 834.993 155.26 830.151 160.754C829.317 161.706 828.545 162.71 827.84 163.762C825.005 168.103 823.254 173.062 822.733 178.221C822.212 183.38 822.938 188.589 824.848 193.409C826.227 196.901 828.3 200.076 830.942 202.743C836.291 208.061 844.059 210.619 851.595 210.371C859.188 209.941 866.497 207.337 872.651 202.871C875.148 201.15 877.419 199.123 879.411 196.838V196.838Z" stroke="#171717" stroke-width="4.652" stroke-linecap="round" stroke-linejoin="round"/>
<path d="M866.729 210.856C868.249 213.03 870.214 214.856 872.495 216.212C874.775 217.567 877.318 218.421 879.955 218.717C880.675 218.838 881.414 218.785 882.11 218.562C883.692 217.942 884.265 216.019 884.389 214.329C884.87 208.189 882.312 202.344 879.412 196.839C879.071 196.203 878.745 195.583 878.404 194.963C875.505 189.614 872.533 184.296 869.489 179.008C863.581 168.79 857.239 158.541 848.805 150.401C846.955 148.593 844.992 146.905 842.928 145.346C839.253 142.586 834.228 140.214 830.276 142.555C827.795 144.028 826.57 147.036 826.461 149.905C826.533 152.792 827.083 155.648 828.09 158.355C828.198 158.727 828.415 159.177 828.803 159.161C829.19 159.161 829.035 158.34 828.756 158.603" stroke="url(#paint18_linear_36_2956)" stroke-width="4.652" stroke-linecap="round" stroke-linejoin="round"/>
<path d="M459.899 536.575C460.054 536.575 460.225 536.559 460.38 536.559C469.08 536.182 477.796 536.503 486.444 537.52" stroke="#171717" stroke-width="4.652" stroke-linecap="round" stroke-linejoin="round"/>
<path d="M103.109 536.854L118.971 550.902L139.577 536.482L131.561 556.918L142.833 572.764L124.63 570.237L115.141 591.386L109.156 572.144L89.79 568.221L105.295 558.003L103.109 536.854Z" stroke="url(#paint19_linear_36_2956)" stroke-width="4.652" stroke-linecap="round" stroke-linejoin="round"/>
<path d="M518.541 212.5L499.516 208.577L486.259 222.78L483.22 202.592L465.823 193.164L482.987 184.606L485.484 164.557L499.128 179.458L518.06 176.512L509.346 194.281L518.541 212.5Z" stroke="#171717" stroke-width="4.652" stroke-linecap="round" stroke-linejoin="round"/>
<path d="M858.03 386.671L842.711 374.716L824.539 381.585L830.756 362.141L819.345 345.985L838.509 345.907L849.626 329.053L855.255 348.45L873.551 354.187L857.86 366.25L858.03 386.671Z" stroke="#171717" stroke-width="4.652" stroke-linecap="round" stroke-linejoin="round"/>
<path d="M830.167 507.58L825.795 492.757L810.848 488.787L823.872 479.097L823.981 463.359L836.4 472.181L851.41 466.429L846.06 481.577L855.224 493.765L839.501 494.307L830.167 507.58Z" stroke="#171717" stroke-width="4.652" stroke-linecap="round" stroke-linejoin="round"/>
<path d="M196.775 556.717C195.969 551.227 195.034 545.764 193.969 540.328C193.86 539.692 193.737 539.072 193.598 538.452C193.505 537.94 193.411 537.428 193.287 536.932C192.356 532.296 191.317 527.66 190.188 523.055" stroke="#171717" stroke-width="4.652" stroke-linecap="round" stroke-linejoin="round"/>
<path d="M179.239 555.91C183.487 550.31 187.679 544.671 191.813 538.993C191.813 538.978 191.813 538.962 191.829 538.962C192.31 538.28 192.806 537.613 193.287 536.931C196.636 532.295 199.938 527.633 203.194 522.945" stroke="#171717" stroke-width="4.652" stroke-linecap="round" stroke-linejoin="round"/>
<path d="M206.854 546.994C205.396 547.227 203.985 546.452 202.714 545.694C199.781 543.926 196.866 542.138 193.969 540.329C193.255 539.895 192.558 539.461 191.844 538.98L191.829 538.964C185.053 534.731 178.355 530.353 171.734 525.831" stroke="#171717" stroke-width="4.652" stroke-linecap="round" stroke-linejoin="round"/>
<path d="M172.106 545.755C178.587 543.274 185.156 541.02 191.813 538.994C191.822 538.985 191.833 538.98 191.844 538.979C192.418 538.793 193.007 538.622 193.597 538.452C199.197 536.762 204.841 535.242 210.528 533.893" stroke="#171717" stroke-width="4.652" stroke-linecap="round" stroke-linejoin="round"/>
<path d="M353.814 198.776C350.356 194.376 346.893 189.976 343.425 185.576C338.525 179.36 333.625 173.137 328.725 166.908" stroke="#171717" stroke-width="4.652" stroke-linecap="round" stroke-linejoin="round"/>
<path d="M331.6 198.854C335.616 194.481 339.559 190.057 343.43 185.581C348.05 180.295 352.557 174.93 356.951 169.487" stroke="#171717" stroke-width="4.652" stroke-linecap="round" stroke-linejoin="round"/>
<path d="M496.105 89.4489C498.741 85.6809 501.377 81.9025 504.013 78.1139C506.431 74.6572 508.85 71.1905 511.269 67.7139" stroke="#171717" stroke-width="4.652" stroke-linecap="round" stroke-linejoin="round"/>
<path d="M511.161 86.2706C508.774 83.5579 506.392 80.8393 504.014 78.1146C500.804 74.4706 497.604 70.8269 494.414 67.1836" stroke="#171717" stroke-width="4.652" stroke-linecap="round" stroke-linejoin="round"/>
<path d="M814.367 557.259C811.747 552.405 809.033 547.605 806.227 542.859C803.669 538.487 801.028 534.171 798.304 529.912" stroke="url(#paint20_linear_36_2956)" stroke-width="4.652" stroke-linecap="round" stroke-linejoin="round"/>
<path d="M790.923 555.367C796.133 551.336 801.233 547.165 806.223 542.854C811.867 537.987 817.361 532.938 822.705 527.706" stroke="url(#paint21_linear_36_2956)" stroke-width="4.652" stroke-linecap="round" stroke-linejoin="round"/>
<path d="M481.973 349.501C486.819 344.819 491.927 340.415 497.273 336.312" stroke="#171717" stroke-width="4.652" stroke-linecap="round" stroke-linejoin="round"/>
<path d="M469.584 340.33C473.459 328.454 477.012 316.478 480.241 304.403" stroke="#171717" stroke-width="4.652" stroke-linecap="round" stroke-linejoin="round"/>
<path d="M446.15 335.931C445.307 329.806 443.972 323.759 442.157 317.85" stroke="#171717" stroke-width="4.652" stroke-linecap="round" stroke-linejoin="round"/>
<path d="M380.272 559.751L373.994 551.803" stroke="#171717" stroke-width="4.652" stroke-linecap="round" stroke-linejoin="round"/>
<path d="M356.951 590.629C358.159 588.055 359.937 585.791 362.151 584.008" stroke="#171717" stroke-width="4.652" stroke-linecap="round" stroke-linejoin="round"/>
<path d="M431.892 568.85C429.46 565.544 427.027 562.237 424.592 558.931" stroke="#171717" stroke-width="4.652" stroke-linecap="round" stroke-linejoin="round"/>
<path d="M452.883 555.135C454.339 552.044 456.392 549.272 458.923 546.978" stroke="#171717" stroke-width="4.652" stroke-linecap="round" stroke-linejoin="round"/>
<path d="M378.844 624.908C377.248 622.234 375.652 619.562 374.056 616.89" stroke="#171717" stroke-width="4.652" stroke-linecap="round" stroke-linejoin="round"/>
<path d="M357.958 651.357C360.394 648.174 364.48 646.281 366.083 642.606" stroke="#171717" stroke-width="4.652" stroke-linecap="round" stroke-linejoin="round"/>
<path d="M332.719 572.832C330.495 570.401 328.272 567.97 326.05 565.539" stroke="#171717" stroke-width="4.652" stroke-linecap="round" stroke-linejoin="round"/>
<path d="M306.589 583.168C303.309 584.817 300.512 587.288 298.471 590.339C298.151 590.818 297.571 591.378 297.103 591.046" stroke="#171717" stroke-width="4.652" stroke-linecap="round" stroke-linejoin="round"/>
<path d="M287.778 609.637C286.576 609.108 285.529 608.282 284.735 607.237C282.718 605.09 280.414 603.231 277.889 601.714" stroke="#171717" stroke-width="4.652" stroke-linecap="round" stroke-linejoin="round"/>
<path d="M256.625 639.651C258.584 635.434 261.013 631.451 263.866 627.778" stroke="#171717" stroke-width="4.652" stroke-linecap="round" stroke-linejoin="round"/>
<path d="M283.287 648.081C280.377 646.422 277.497 644.711 274.647 642.949" stroke="#171717" stroke-width="4.652" stroke-linecap="round" stroke-linejoin="round"/>
<path d="M299.432 627.242L307.292 615.332" stroke="#171717" stroke-width="4.652" stroke-linecap="round" stroke-linejoin="round"/>
<path d="M299.336 658.277C296.494 662.718 293.856 667.28 291.422 671.964" stroke="#171717" stroke-width="4.652" stroke-linecap="round" stroke-linejoin="round"/>
<path d="M245.049 613.611C247.315 609.611 249.582 605.615 251.849 601.622L251.369 602.122" stroke="#171717" stroke-width="4.652" stroke-linecap="round" stroke-linejoin="round"/>
<path d="M247.209 678.091C244.489 676.333 241.769 674.573 239.05 672.813" stroke="#171717" stroke-width="4.652" stroke-linecap="round" stroke-linejoin="round"/>
<path d="M328.382 685.873C325.088 683.579 321.692 681.446 318.192 679.473C318.172 679.237 318.153 679.003 318.133 678.767" stroke="#171717" stroke-width="4.652" stroke-linecap="round" stroke-linejoin="round"/>
<path d="M289.5 713.447C291.018 708.941 292.969 704.592 295.324 700.462" stroke="#171717" stroke-width="4.652" stroke-linecap="round" stroke-linejoin="round"/>
<path d="M275.959 694.529C273.24 693.312 271.065 691.136 269.851 688.416" stroke="#171717" stroke-width="4.652" stroke-linecap="round" stroke-linejoin="round"/>
<path d="M245.108 708.319C247.514 704.591 250.187 701.043 253.108 697.704" stroke="#171717" stroke-width="4.652" stroke-linecap="round" stroke-linejoin="round"/>
<path fill-rule="evenodd" clip-rule="evenodd" d="M392.7 846.468C389.413 845.895 386.064 845.259 383.164 843.6C382.917 843.462 382.678 843.31 382.45 843.142L382.078 843.716C368.606 855.672 353.325 865.416 336.802 872.587C331.98 874.68 326.817 876.572 321.607 875.92C318.551 875.453 315.631 874.332 313.048 872.633C305.637 867.966 300.567 860.433 296.225 852.833C294.178 849.236 292.209 845.514 291.418 841.452C290.24 835.374 291.822 829.035 294.69 823.543C297.558 818.051 301.652 813.325 305.807 808.751C316.021 797.512 326.872 786.868 338.307 776.873C342.776 772.954 347.538 769.036 353.155 767.284C322.689 756.337 287.944 762.182 256.64 773.323C255.43 773.754 254.1 773.122 253.669 771.911C253.238 770.701 253.87 769.371 255.08 768.94C288.358 757.097 326.449 750.786 359.607 764.812C360.266 765.091 360.729 765.638 360.924 766.273C364.367 766.347 367.841 766.968 371.241 767.6C354.387 753.008 336.191 740.044 316.894 728.88L316.863 728.632C293.744 732.256 270.192 733.632 249.554 723.232C229.413 724.457 208.884 725.961 190.324 733.869C171.331 741.963 154.492 758.29 151.624 778.741C149.422 794.557 155.857 810.698 166.106 822.931C176.355 835.181 190.092 843.988 204.218 851.415C236.066 868.145 270.813 878.75 305.932 886.488C373.179 901.311 442.425 905.931 511.253 904.164C519.409 903.95 528.728 903.001 534.201 897.45C534.993 896.64 535.695 895.746 536.294 894.783C537.569 892.623 538.377 890.22 538.667 887.728C538.951 885.601 539.049 883.454 538.961 881.309C538.756 873.523 537.397 865.811 534.93 858.423L534.775 855.415C487.231 857.745 439.576 854.744 392.7 846.468ZM233.437 733.735C234.112 733.668 234.783 733.899 235.273 734.367C239.817 738.702 243.907 743.489 247.48 748.654C248.211 749.711 247.947 751.159 246.891 751.89C246.816 751.942 246.739 751.989 246.66 752.031C246.158 753.02 245.004 753.536 243.907 753.201C242.283 752.705 240.584 752.506 238.89 752.614C238.844 752.617 238.797 752.618 238.751 752.619C233.108 752.639 227.466 752.66 221.824 752.682C220.887 752.685 220.039 752.126 219.674 751.263C219.308 750.4 219.496 749.402 220.15 748.731C224.394 744.381 228.277 739.694 231.762 734.716C232.151 734.16 232.763 733.802 233.437 733.735ZM241.248 747.991C239.003 745.048 236.573 742.25 233.973 739.613C231.838 742.515 229.571 745.317 227.178 748.009C231.007 747.995 234.837 747.981 238.667 747.967C239.528 747.915 240.391 747.924 241.248 747.991ZM230.375 795.994C229.691 795.592 228.849 795.568 228.142 795.929C227.436 796.289 226.961 796.985 226.885 797.775C226.373 803.034 225.494 808.251 224.255 813.387C224.035 814.303 224.388 815.262 225.15 815.815C225.913 816.368 226.934 816.407 227.736 815.913C232.631 812.9 237.391 809.693 242.017 806.294C242.546 806.318 243.075 806.161 243.511 805.837C244.13 805.378 244.48 804.641 244.447 803.871C244.438 803.644 244.429 803.417 244.421 803.191C244.377 801.907 243.301 800.902 242.017 800.946C241.71 800.956 241.418 801.026 241.154 801.144C237.424 799.733 233.818 798.011 230.375 795.994ZM229.964 808.992C232.249 807.499 234.503 805.962 236.726 804.38C234.823 803.572 232.953 802.687 231.121 801.726C230.811 804.16 230.425 806.583 229.964 808.992ZM289.252 780.813C290.06 780.79 290.822 781.188 291.264 781.864C293.865 785.836 296.199 789.977 298.253 794.258C298.809 795.416 298.321 796.805 297.162 797.361C296.818 797.526 296.453 797.599 296.095 797.589C295.737 798.203 295.103 798.646 294.342 798.73L288.758 799.351L288.757 799.351L277.458 800.612C276.459 800.724 275.501 800.181 275.084 799.266C274.667 798.352 274.884 797.273 275.623 796.591C280.233 792.338 284.171 787.411 287.303 781.976C287.706 781.276 288.444 780.836 289.252 780.813ZM293.035 794.195C291.886 791.932 290.653 789.712 289.341 787.54C287.561 790.256 285.587 792.838 283.433 795.265L288.242 794.728L288.243 794.728L293.035 794.195ZM418.506 862.954C417.813 862.874 417.12 863.109 416.619 863.596C416.118 864.082 415.862 864.767 415.922 865.462C416.356 870.55 416.499 875.658 416.351 880.761C416.325 881.661 416.821 882.496 417.624 882.903C418.427 883.31 419.393 883.218 420.104 882.665C425.066 878.809 429.819 874.705 434.508 870.627C435.024 870.759 435.54 870.894 436.055 871.033C437.295 871.367 438.572 870.632 438.905 869.391C439.239 868.151 438.504 866.874 437.264 866.541C436.636 866.372 436.007 866.208 435.377 866.048C434.895 865.709 434.307 865.571 433.738 865.645C428.72 864.445 423.634 863.546 418.506 862.954ZM420.771 867.931C423.496 868.308 426.208 868.776 428.901 869.333C426.302 871.579 423.7 873.799 421.057 875.956C421.039 873.279 420.944 870.603 420.771 867.931Z" fill="#171717"/>
<path fill-rule="evenodd" clip-rule="evenodd" d="M629.126 839.284C615.821 844.004 602.13 847.553 588.207 849.89C575.341 852.084 562.372 853.631 549.351 854.526C547.397 854.681 545.444 854.805 543.49 854.926C540.59 855.112 537.675 855.267 534.776 855.407C487.232 857.738 439.577 854.738 392.7 846.463C389.413 845.89 386.064 845.254 383.164 843.595C382.918 843.46 382.679 843.31 382.451 843.145C379.704 841.351 377.564 838.767 376.311 835.734C373.489 829.346 373.628 821.004 374.811 813.825C375.735 808.013 377.246 802.308 379.32 796.8C383.15 786.892 389.212 778.147 398.609 773.62L398.562 773.108C425.178 771.015 452.211 771.052 479.24 771.088C511.484 771.131 543.72 771.174 575.233 767.603C575.802 767.857 576.472 767.883 577.091 767.621C593.643 760.598 612.083 759.373 629.418 764.145C630.657 764.486 631.937 763.758 632.278 762.52C632.619 761.281 631.892 760.001 630.653 759.66C612.307 754.609 592.792 755.906 575.275 763.338C573.862 745.805 573.355 728.21 573.756 710.622L574.314 710.637C597.386 708.73 621.214 708.668 642.956 716.684C664.679 724.684 684.092 742.113 689.023 764.751C689.581 767.336 689.954 769.958 690.139 772.596C691.116 786.179 686.945 800.227 677.998 810.491C673.083 816.12 666.912 820.508 660.524 824.399C650.574 830.384 640.057 835.37 629.126 839.284ZM446.386 787.526C445.865 786.845 445.012 786.506 444.166 786.643C443.319 786.781 442.617 787.373 442.338 788.184C440.555 793.378 437.718 798.207 434.692 803.14C434.454 803.469 434.278 803.84 434.174 804.234C434.051 804.697 434.031 805.181 434.114 805.653C434.136 805.777 434.167 805.899 434.209 806.018C434.633 807.229 435.651 807.701 436.257 807.861C436.827 808.011 437.363 807.993 437.672 807.969C444.21 807.545 450.767 807.476 457.312 807.761C458.596 807.817 459.681 806.822 459.737 805.538C459.781 804.525 459.171 803.635 458.28 803.278C458.201 803.044 458.082 802.818 457.924 802.611C454.077 797.583 450.231 792.555 446.386 787.526ZM445.193 793.625C447.573 796.737 449.953 799.848 452.333 802.96C448.261 802.896 444.186 802.966 440.118 803.169C441.942 800.126 443.723 796.96 445.193 793.625ZM437.261 803.333C437.261 803.333 437.265 803.333 437.273 803.333C437.265 803.333 437.261 803.333 437.261 803.333ZM622.096 783.59C622.693 783.075 623.013 782.269 622.871 781.435C622.654 780.169 621.452 779.318 620.185 779.535L598.82 783.192C598.16 783.305 597.582 783.695 597.231 784.265C596.881 784.834 596.792 785.527 596.988 786.166C597.639 788.29 598.956 789.911 600.195 791.217C600.654 791.7 601.144 792.183 601.601 792.632L601.602 792.634L601.602 792.634L601.603 792.635L601.809 792.837L601.98 793.007L602.048 793.074C602.642 793.664 603.171 794.209 603.631 794.764L603.632 794.765C605.368 796.856 606.394 799.389 607.57 802.29C607.797 802.851 608.03 803.426 608.274 804.013L611.412 799.376L611.413 799.376L608.274 804.014C608.92 805.566 610.027 808.113 612.462 809.341C613.09 809.658 613.827 809.673 614.467 809.384C615.108 809.095 615.583 808.532 615.76 807.852C617.872 799.763 619.984 791.676 622.096 783.59ZM614.267 795.159L622.096 783.59L614.267 795.159L616.97 784.805L602.857 787.22C603.074 787.479 603.311 787.743 603.57 788.016C603.97 788.437 604.377 788.837 604.816 789.27L604.817 789.271L604.817 789.271C604.982 789.433 605.151 789.599 605.325 789.772C605.942 790.384 606.602 791.058 607.211 791.793L616.97 784.805L607.212 791.795C609.116 794.088 610.366 796.83 611.412 799.376L614.267 795.159L614.267 795.159ZM614.267 795.159L611.413 799.376C611.597 799.825 611.775 800.267 611.949 800.7L611.952 800.708C612.131 801.152 612.305 801.587 612.478 802.007L614.267 795.159ZM661.634 755.16C661.676 754.337 661.279 753.552 660.59 753.099C659.901 752.645 659.024 752.59 658.284 752.954L645.49 759.245C644.832 759.569 644.365 760.184 644.23 760.906C644.095 761.627 644.309 762.37 644.807 762.909C646.804 765.074 649.1 766.941 651.627 768.454L651.628 768.455C652.084 768.727 652.503 768.966 652.898 769.192C653.648 769.62 654.314 770 654.983 770.466C655.934 771.127 656.57 771.761 656.946 772.482C657.541 773.62 658.947 774.061 660.085 773.466C661.224 772.87 661.664 771.465 661.069 770.327C661.006 770.207 660.942 770.09 660.875 769.976C661.128 765.036 661.381 760.098 661.634 755.16ZM656.785 758.875L656.427 765.866C655.937 765.569 655.443 765.286 654.986 765.025L654.981 765.022L654.98 765.022L654.98 765.021L654.749 764.889C654.486 764.738 654.238 764.595 654.016 764.462L654.015 764.462C652.782 763.723 651.612 762.885 650.519 761.956L656.785 758.875ZM522.17 821.053C522.797 821.466 523.186 822.156 523.215 822.906C523.45 829.02 523.43 835.129 523.157 841.232C523.144 841.529 523.076 841.81 522.963 842.066C522.934 842.396 522.834 842.725 522.656 843.03C522.01 844.14 520.587 844.517 519.476 843.871C514.619 841.045 509.902 838.002 505.241 834.994L500.873 832.175C500.137 831.7 499.73 830.853 499.82 829.982C499.91 829.111 500.481 828.364 501.298 828.05L520.055 820.825C520.755 820.555 521.543 820.64 522.17 821.053ZM518.626 837.953C518.743 834.086 518.757 830.216 518.667 826.345L507.239 830.747L507.763 831.085C511.387 833.424 514.981 835.742 518.626 837.953ZM557.248 803.817L553.47 796.688C554.404 796.846 555.394 797.07 556.473 797.314L556.473 797.314L556.852 797.4C558.007 797.66 559.272 797.938 560.603 798.093L557.248 803.817ZM567.378 795.057C567.634 796.108 567.133 797.166 566.223 797.657C566.182 797.76 566.132 797.861 566.074 797.96L559.153 809.767C558.727 810.494 557.94 810.934 557.097 810.916C556.254 810.898 555.486 810.425 555.091 809.68C552.551 804.888 550.012 800.098 547.473 795.307C547.116 794.633 547.112 793.826 547.463 793.149C547.814 792.471 548.475 792.008 549.232 791.911C552.1 791.543 554.94 792.192 557.301 792.731C557.42 792.758 557.537 792.785 557.653 792.811C557.727 792.828 557.801 792.845 557.875 792.861C560.529 793.459 562.612 793.827 564.566 793.35C565.814 793.045 567.073 793.809 567.378 795.057Z" fill="#171717"/>
<path d="M356.299 510.521C354.721 515.987 353.143 521.451 351.562 526.913" stroke="#171717" stroke-width="4.652" stroke-linecap="round" stroke-linejoin="round"/>
<path d="M443.589 518.291C443.722 525.896 443.665 533.502 443.416 541.108L443.448 540.451" stroke="#171717" stroke-width="4.652" stroke-linecap="round" stroke-linejoin="round"/>
<path d="M426.605 518.433C426.839 525.895 426.968 533.36 426.992 540.826C427.018 540.657 427.044 540.486 427.069 540.317" stroke="#171717" stroke-width="4.652" stroke-linecap="round" stroke-linejoin="round"/>
<path d="M410.087 518.431C408.823 525.961 410.064 533.698 409.327 541.297C409.315 541.427 409.32 541.59 409.437 541.646C409.554 541.702 409.655 541.446 409.524 541.461" stroke="#171717" stroke-width="4.652" stroke-linecap="round" stroke-linejoin="round"/>
<path d="M394.351 518.017C394.517 525.767 394.582 533.52 394.545 541.275" stroke="#171717" stroke-width="4.652" stroke-linecap="round" stroke-linejoin="round"/>
<path d="M420.299 541.408C420.099 553.51 419.899 565.61 419.699 577.708" stroke="#171717" stroke-width="4.652" stroke-linecap="round" stroke-linejoin="round"/>
<path d="M334.347 663.609C332.699 684.076 332.821 704.646 334.713 725.091" stroke="#171717" stroke-width="4.652" stroke-linecap="round" stroke-linejoin="round"/>
<g opacity="0.1">
<path d="M383.439 525.402C383.839 529.196 385.749 536.839 381.539 539.056C379.425 540.17 376.326 540.23 373.984 540.536C370.373 541.008 366.763 541.486 363.161 542.027C349.361 544.006 335.732 547.032 322.391 551.081C296.824 559.034 272.526 571.265 253.604 590.535C235.858 608.607 223.359 631.844 220.993 657.261C218.55 683.515 228.967 711.087 252.793 724.236C282.684 740.73 317.021 732.136 347.623 722.704C360.901 718.611 355.237 697.704 341.866 701.821C318.131 709.136 290.438 718.333 266.34 707.185C246.057 697.803 238.64 674.92 241.532 653.9C248.347 604.455 295.767 574.919 340.26 563.6C347.017 561.881 353.842 560.439 360.704 559.214C367.843 557.938 375.234 557.458 382.304 555.879C389.344 554.306 395.279 549.938 397.767 543.022C400.013 536.778 398.91 529.751 397.149 523.544C395.082 516.261 382.565 517.32 383.43 525.4L383.439 525.402Z" fill="#171717"/>
</g>
<g opacity="0.1">
<path d="M626.343 246.665C599.948 249.723 583.934 277.443 587.674 302.316L598.953 291.036C580.269 283.907 562.688 302.205 562.964 320.208C563.298 341.946 581.352 355.695 598.264 365.831L600.875 345.852C585.136 348.515 571.904 360.582 567.01 375.645C561.917 391.319 567.254 409.474 579.188 420.572L584.028 402.239C564.559 407.532 552.311 429.178 558.298 448.573L568.875 434.689C550.817 432.558 528.956 433.466 518.886 451.462C508.736 469.601 521.351 487.42 534.349 499.762L545.067 481.35C533.961 478.79 523.789 485.274 520.019 495.837C516.389 506.01 521.066 516.33 526.133 525.066L530.069 510.055C524.835 512.894 520.489 517.127 517.511 522.283C514.534 527.44 513.042 533.32 513.2 539.272L531.853 531.547C521.453 523.462 507.292 521.664 496.341 530.056C486.913 537.281 482.736 550.905 487.241 562.066L497.773 548.241C484.936 549.275 473.273 554.283 464.187 563.534C454.37 573.528 469.705 588.888 479.566 578.913C484.362 573.859 490.834 570.721 497.773 570.085C504.008 569.6 511.233 563.36 508.305 556.26C506.918 552.897 506.546 549.991 509.124 547.632C510.876 546.032 514.559 545.568 516.394 547.004C519.934 549.776 523.92 551.204 528.334 549.264C530.309 548.441 531.999 547.055 533.194 545.28C534.388 543.504 535.035 541.416 535.053 539.276C534.93 534.64 536.817 531.3 541.137 529.006C546.392 526.216 547.942 518.969 545.073 513.995C543.561 511.373 540.518 507.343 540.696 504.1C540.868 500.979 542.041 503.258 539.203 502.6C549.488 504.991 558.27 492.044 549.921 484.189C544.632 479.214 532.921 468.973 538.521 461.389C544.747 452.959 559.539 455.532 568.866 456.632C575.944 457.467 581.358 448.953 579.443 442.747C577.053 435.004 581.413 425.693 589.851 423.399C597.607 421.291 600.785 410.735 594.691 405.066C588.227 399.055 585.191 389.989 588.122 381.473C590.944 373.285 598.39 368.352 606.678 366.939C616.34 365.293 616.778 351.439 609.289 346.96C599.689 341.22 587.435 334.805 583.642 323.483C582.365 319.668 581.831 315.243 584.429 311.876C586.896 308.676 590.364 307.413 594.071 308.727C601.271 311.276 606.451 303.727 605.351 297.447C602.304 280.047 614.876 265.778 629.696 259.075C635.561 256.422 632.796 245.922 626.336 246.675L626.343 246.665Z" fill="#171717"/>
</g>
<g opacity="0.1">
<path d="M682.952 412.698C677.774 412.504 672.57 417.806 669.243 421.365C665.059 425.904 661.759 431.185 659.512 436.936C657.5 442.381 656.633 448.182 656.963 453.978C657.294 459.773 658.815 465.438 661.433 470.62C672.014 491.403 704.049 494.942 715.89 473.294L697.052 470.831C698.783 477.341 702.468 483.165 707.611 487.516C712.753 491.868 719.106 494.538 725.813 495.168C736.713 496.124 755.47 487.557 752.573 473.982C752.067 471.615 749.239 469.292 746.742 469.543C742.819 469.937 740.602 472.237 737.074 473.525C734.16 474.646 731.056 475.193 727.933 475.136C722.321 474.782 718.289 470.571 716.933 465.351C714.721 456.851 702.411 455.169 698.094 462.888C696.063 466.52 691.594 467.941 687.756 467.424C682.802 466.757 679.056 462.948 677.036 458.024C674.379 451.564 675.476 445.079 677.367 438.609C678.496 434.748 680.635 431.203 682.467 427.646C684.326 424.046 687.43 421.422 687.359 417.106C687.336 415.944 686.864 414.837 686.043 414.015C685.221 413.193 684.114 412.721 682.952 412.698V412.698Z" fill="#171717"/>
</g>
<g opacity="0.1">
<path d="M689.695 542.519L689.755 542.019C689.755 541.536 689.629 541.061 689.389 540.642C689.149 540.223 688.802 539.874 688.385 539.631C680.112 533.931 667.211 539.373 661.725 546.52C654.925 555.375 653.025 567.94 659.476 577.655C673.976 599.496 709.331 590.215 714.82 565.843L708.356 570.764C715.775 570.132 722.256 567.248 728.7 563.617C734.792 560.182 740.268 555.691 743.651 549.51C745.516 546.11 741.036 542.447 738.204 545.31C734.23 549.322 730.116 553.291 724.934 555.69C719.674 558.126 714.027 557.79 708.356 557.361C705.189 557.121 702.946 559.661 701.893 562.282C699.145 569.12 694.143 575.161 686.414 576.259C682.768 576.746 679.06 576.106 675.788 574.426C672.516 572.746 669.836 570.105 668.107 566.859C664.068 559.633 665.869 550.734 673.257 546.695C677.227 544.525 680.9 544.465 685.286 544.732C687.002 544.832 689.437 544.726 689.695 542.532V542.519Z" fill="#171717"/>
</g>
<g opacity="0.1">
<path d="M540.688 322.336C533.335 323.001 529.956 327.164 526.012 332.971L528.146 331.331C519.976 333.417 522.377 345.677 526.482 350.352C531.216 355.744 541.782 359.083 547.062 352.598C550.144 348.815 548.411 342.352 542.852 342.436C539.976 342.479 537.231 343.815 535.243 341.046C533.297 338.335 534.356 334.674 531.619 332.246L532.664 334.77C532.964 330.77 538.676 326.851 541.616 324.57C541.795 324.385 541.915 324.151 541.963 323.898C542.01 323.645 541.983 323.384 541.885 323.146C541.786 322.909 541.621 322.705 541.408 322.559C541.196 322.414 540.946 322.334 540.688 322.329V322.336Z" fill="#171717"/>
</g>
<g opacity="0.1">
<path d="M535.452 384.518C523.552 384.884 515.361 398.007 518.924 409.159C519.856 412.097 521.417 414.797 523.501 417.07C525.584 419.342 528.138 421.132 530.986 422.315C536.432 424.602 545.666 425.997 547.962 418.947C548.167 418.236 548.175 417.484 547.986 416.769C547.797 416.054 547.418 415.404 546.889 414.888C543.489 411.915 540.605 413.669 536.606 413.032C534.81 412.756 533.108 412.048 531.645 410.97C530.182 409.892 529.002 408.476 528.207 406.842C524.258 398.721 528.932 391.451 536.306 387.663C536.618 387.47 536.859 387.182 536.993 386.841C537.128 386.501 537.148 386.126 537.053 385.773C536.957 385.419 536.75 385.106 536.462 384.88C536.174 384.654 535.821 384.527 535.455 384.518H535.452Z" fill="#171717"/>
</g>
<g opacity="0.1">
<path d="M193.712 213.081C179.957 217.095 166.72 223.971 154.212 230.864C141.446 238.007 129.855 247.071 119.844 257.738C98.7534 280.22 83.6634 308.862 81.3654 339.938C76.5114 405.593 120.574 463.391 180.388 486.356C198.262 493.218 217.801 494.899 236.822 494.856C246.468 494.834 256.561 492.938 266.072 491.319C270.773 490.682 275.415 489.667 279.952 488.283C284.461 486.726 288.803 484.454 293.169 482.541C297.19 480.78 294.036 475.494 290.424 476.03C282.442 477.215 274.183 477.755 266.139 478.565C258.531 479.412 250.855 479.445 243.239 478.665C235.334 477.797 227.593 477.765 219.802 475.939C212.298 474.264 204.89 472.187 197.608 469.716C171.9 460.707 149.295 447.488 131.322 426.657C94.9924 384.547 89.1044 317.28 124.029 272.497C133.389 260.497 144.474 250.446 156.249 240.91C168.356 231.11 181.654 224.227 195.336 216.942C197.449 215.816 196.001 212.418 193.71 213.086L193.712 213.081Z" fill="#171717"/>
</g>
<g opacity="0.1">
<path d="M404.077 517.247C407.189 513.757 406.404 509.592 406.405 505.134C406.405 499.987 406.111 494.756 406.452 489.618C407.094 479.931 407.481 470.243 407.995 460.538C408.495 451.118 408.739 441.425 411.551 432.344C412.899 428.418 414.73 424.676 417.003 421.203C418.963 417.966 421.789 415.181 423.431 411.803C423.681 411.352 423.811 410.845 423.807 410.33C423.803 409.814 423.667 409.309 423.41 408.862C423.154 408.415 422.786 408.042 422.343 407.778C421.9 407.515 421.397 407.371 420.881 407.359C412.548 406.959 405.67 415.651 402.591 422.435C398.252 431.998 397.215 442.421 396.559 452.789C395.871 463.667 394.941 474.84 395.638 485.735C396.011 491.556 396.109 497.352 396.295 503.19C396.444 507.89 395.65 513.756 399.238 517.243C399.885 517.876 400.753 518.23 401.658 518.23C402.563 518.23 403.431 517.876 404.077 517.243V517.247Z" fill="#171717"/>
</g>
<defs>
<linearGradient id="paint0_linear_36_2956" x1="846.448" y1="329.053" x2="846.448" y2="386.671" gradientUnits="userSpaceOnUse">
<stop stop-color="#42E670"/>
<stop offset="1" stop-color="#07AA50"/>
</linearGradient>
<linearGradient id="paint1_linear_36_2956" x1="699.334" y1="276.582" x2="699.334" y2="313.143" gradientUnits="userSpaceOnUse">
<stop stop-color="#42E670"/>
<stop offset="1" stop-color="#07AA50"/>
</linearGradient>
<linearGradient id="paint2_linear_36_2956" x1="715.436" y1="185.136" x2="715.436" y2="340.603" gradientUnits="userSpaceOnUse">
<stop stop-color="#42E670"/>
<stop offset="1" stop-color="#07AA50"/>
</linearGradient>
<linearGradient id="paint3_linear_36_2956" x1="657.044" y1="175.64" x2="657.044" y2="315.021" gradientUnits="userSpaceOnUse">
<stop stop-color="#42E670"/>
<stop offset="1" stop-color="#07AA50"/>
</linearGradient>
<linearGradient id="paint4_linear_36_2956" x1="671.633" y1="225.105" x2="671.633" y2="269.9" gradientUnits="userSpaceOnUse">
<stop stop-color="#42E670"/>
<stop offset="1" stop-color="#07AA50"/>
</linearGradient>
<linearGradient id="paint5_linear_36_2956" x1="709.748" y1="40.0645" x2="709.748" y2="106.117" gradientUnits="userSpaceOnUse">
<stop stop-color="#42E670"/>
<stop offset="1" stop-color="#07AA50"/>
</linearGradient>
<linearGradient id="paint6_linear_36_2956" x1="599.422" y1="159.654" x2="599.422" y2="293.584" gradientUnits="userSpaceOnUse">
<stop stop-color="#42E670"/>
<stop offset="1" stop-color="#07AA50"/>
</linearGradient>
<linearGradient id="paint7_linear_36_2956" x1="597.574" y1="625.312" x2="597.574" y2="703.378" gradientUnits="userSpaceOnUse">
<stop stop-color="#42E670"/>
<stop offset="1" stop-color="#07AA50"/>
</linearGradient>
<linearGradient id="paint8_linear_36_2956" x1="595.076" y1="839.278" x2="595.076" y2="920.061" gradientUnits="userSpaceOnUse">
<stop stop-color="#42E670"/>
<stop offset="1" stop-color="#07AA50"/>
</linearGradient>
<linearGradient id="paint9_linear_36_2956" x1="590.132" y1="188.929" x2="590.132" y2="231.072" gradientUnits="userSpaceOnUse">
<stop stop-color="#42E670"/>
<stop offset="1" stop-color="#07AA50"/>
</linearGradient>
<linearGradient id="paint10_linear_36_2956" x1="492.182" y1="164.557" x2="492.182" y2="222.78" gradientUnits="userSpaceOnUse">
<stop stop-color="#42E670"/>
<stop offset="1" stop-color="#07AA50"/>
</linearGradient>
<linearGradient id="paint11_linear_36_2956" x1="421.118" y1="516.965" x2="421.118" y2="541.931" gradientUnits="userSpaceOnUse">
<stop stop-color="#42E670"/>
<stop offset="1" stop-color="#07AA50"/>
</linearGradient>
<linearGradient id="paint12_linear_36_2956" x1="344.815" y1="766.269" x2="344.815" y2="876.055" gradientUnits="userSpaceOnUse">
<stop stop-color="#42E670"/>
<stop offset="1" stop-color="#07AA50"/>
</linearGradient>
<linearGradient id="paint13_linear_36_2956" x1="252.457" y1="208.094" x2="252.457" y2="377.082" gradientUnits="userSpaceOnUse">
<stop stop-color="#42E670"/>
<stop offset="1" stop-color="#07AA50"/>
</linearGradient>
<linearGradient id="paint14_linear_36_2956" x1="355.798" y1="536.403" x2="355.798" y2="731.299" gradientUnits="userSpaceOnUse">
<stop stop-color="#42E670"/>
<stop offset="1" stop-color="#07AA50"/>
</linearGradient>
<linearGradient id="paint15_linear_36_2956" x1="213.235" y1="114.381" x2="213.235" y2="173.193" gradientUnits="userSpaceOnUse">
<stop stop-color="#42E670"/>
<stop offset="1" stop-color="#07AA50"/>
</linearGradient>
<linearGradient id="paint16_linear_36_2956" x1="199.823" y1="382.023" x2="199.823" y2="491.796" gradientUnits="userSpaceOnUse">
<stop stop-color="#42E670"/>
<stop offset="1" stop-color="#07AA50"/>
</linearGradient>
<linearGradient id="paint17_linear_36_2956" x1="482.296" y1="633.767" x2="482.296" y2="705.708" gradientUnits="userSpaceOnUse">
<stop stop-color="#42E670"/>
<stop offset="1" stop-color="#07AA50"/>
</linearGradient>
<linearGradient id="paint18_linear_36_2956" x1="855.454" y1="141.602" x2="855.454" y2="218.78" gradientUnits="userSpaceOnUse">
<stop stop-color="#42E670"/>
<stop offset="1" stop-color="#07AA50"/>
</linearGradient>
<linearGradient id="paint19_linear_36_2956" x1="116.312" y1="536.482" x2="116.312" y2="591.386" gradientUnits="userSpaceOnUse">
<stop stop-color="#42E670"/>
<stop offset="1" stop-color="#07AA50"/>
</linearGradient>
<linearGradient id="paint20_linear_36_2956" x1="806.335" y1="529.912" x2="806.335" y2="557.259" gradientUnits="userSpaceOnUse">
<stop stop-color="#42E670"/>
<stop offset="1" stop-color="#07AA50"/>
</linearGradient>
<linearGradient id="paint21_linear_36_2956" x1="806.814" y1="527.706" x2="806.814" y2="555.367" gradientUnits="userSpaceOnUse">
<stop stop-color="#42E670"/>
<stop offset="1" stop-color="#07AA50"/>
</linearGradient>
</defs>
</svg>
